<?xml version="1.0" standalone="no"?>
<!DOCTYPE svg PUBLIC "-//W3C//DTD SVG 20010904//EN"
 "http://www.w3.org/TR/2001/REC-SVG-20010904/DTD/svg10.dtd">
<svg version="1.0" xmlns="http://www.w3.org/2000/svg"
 width="1600.000000pt" height="1600.000000pt" viewBox="0 0 1600.000000 1600.000000"
 preserveAspectRatio="xMidYMid meet">
<metadata>
Created by potrace 1.14, written by Peter Selinger 2001-2017
</metadata>
<g transform="translate(0.000000,1600.000000) scale(0.100000,-0.100000)"
fill="#000000" stroke="none">
<path d="M2660 10702 l0 -5298 45 -134 c25 -74 45 -136 45 -138 0 -1 -15 8
-33 22 -18 14 -64 40 -102 58 -66 31 -76 33 -180 33 -99 0 -115 -3 -165 -27
-30 -15 -55 -26 -56 -25 0 1 -11 53 -23 116 -42 215 -135 432 -258 602 -191
266 -575 522 -881 589 -57 12 -106 20 -109 17 -7 -7 67 -120 156 -237 142
-188 225 -412 244 -656 l4 -51 -59 72 c-200 249 -478 421 -791 490 -71 15
-339 46 -345 40 -4 -4 80 -112 158 -205 179 -211 309 -484 395 -828 55 -220
88 -509 110 -962 26 -534 56 -677 171 -800 26 -28 66 -57 97 -70 45 -20 63
-22 147 -17 128 6 266 58 441 163 31 19 61 34 65 34 5 0 27 -31 49 -68 715
-1216 1901 -2243 3260 -2821 751 -320 1531 -511 2380 -583 202 -17 961 -17
1160 1 649 55 1213 170 1803 367 899 299 1666 730 2402 1348 194 164 596 564
764 760 224 263 495 638 645 892 l42 71 111 -63 c313 -179 523 -199 656 -63
111 113 149 288 172 789 26 587 78 930 185 1232 75 209 195 425 317 569 78 92
158 196 158 204 0 10 -144 -3 -279 -26 -348 -59 -641 -232 -866 -514 l-48 -59
8 79 c21 237 101 441 245 634 86 114 160 227 154 234 -3 3 -44 -4 -92 -14
-256 -55 -541 -218 -753 -428 -208 -208 -336 -445 -398 -736 -12 -55 -23 -110
-26 -123 -5 -22 -7 -21 -63 22 -142 112 -271 123 -396 36 -30 -21 -53 -33 -51
-27 2 7 15 48 29 92 l26 80 -2 5310 -3 5310 -5332 3 -5333 2 0 -5298z m7923
5111 c-1421 -2 -3745 -2 -5165 0 -1421 1 -259 2 2582 2 2841 0 4003 -1 2583
-2z m2272 -1193 l0 -1015 -4858 0 -4857 0 4855 2 4855 3 0 1010 0 1010 -4855
3 -4855 2 4857 0 4858 0 0 -1015z m-9718 173 c-1 -153 -2 -28 -2 277 0 305 1
430 2 278 2 -153 2 -403 0 -555z m0 -395 c-2 -18 -4 -4 -4 32 0 36 2 50 4 33
2 -18 2 -48 0 -65z m9788 -4938 l0 -4015 -2 4012 -3 4013 -4908 3 -4907 2
4910 0 4910 0 0 -4015z m-9828 3773 c-2 -32 -3 -6 -3 57 0 63 1 89 3 58 2 -32
2 -84 0 -115z m6033 -548 c7 -8 15 -35 17 -59 7 -60 -24 -92 -95 -102 l-50 -6
14 -34 c23 -54 18 -97 -13 -126 -28 -27 -88 -48 -110 -41 -32 11 -3 81 38 95
10 3 6 13 -14 37 -55 66 -24 132 63 133 3 1 17 -2 33 -6 26 -6 27 -5 27 29 0
75 54 123 90 80z m-2247 -99 c9 3 17 2 17 -3 0 -13 -52 -84 -75 -103 -17 -14
-18 -13 -10 5 4 11 10 47 13 79 4 58 5 58 21 37 11 -14 23 -20 34 -15z m3135
-9 c3 -31 -2 -43 -28 -68 -30 -30 -34 -31 -91 -26 l-60 5 -20 -39 c-22 -45
-71 -79 -111 -79 -38 0 -78 17 -78 34 0 22 56 64 95 72 32 6 35 9 35 43 0 84
68 112 141 60 12 -9 21 -6 42 15 40 40 71 32 75 -17z m-3318 3 c0 -24 17 -26
42 -3 17 15 18 15 18 -8 0 -45 -88 -155 -108 -135 -14 15 -7 112 11 139 21 32
37 35 37 7z m-200 -120 c0 -23 29 -27 48 -8 9 9 12 6 12 -16 0 -36 -30 -85
-71 -115 -25 -19 -33 -21 -40 -10 -16 25 -10 103 11 137 22 36 40 42 40 12z
m-199 -86 c9 -26 10 -26 29 -9 20 18 20 17 20 -14 0 -41 -19 -77 -63 -120
l-35 -33 -7 45 c-8 51 1 101 22 134 19 29 21 29 34 -3z m496 -13 c10 -16 9
-20 -3 -25 -21 -8 -58 -8 -79 1 -15 5 -15 8 6 24 31 24 61 24 76 0z m3635 -95
c6 -11 12 -23 14 -25 2 -2 17 8 34 23 34 28 59 33 78 14 31 -31 0 -105 -55
-135 -32 -17 -64 -14 -125 11 -13 6 -23 -2 -42 -33 -31 -48 -71 -71 -125 -71
-54 0 -99 36 -83 67 15 27 71 53 116 53 31 0 36 3 36 24 0 46 22 88 53 101 38
16 82 3 99 -29z m-3436 -2 c18 -9 39 -23 46 -32 11 -13 10 -14 -16 -8 -27 7
-28 5 -22 -18 l6 -25 -22 22 c-13 12 -39 34 -58 49 l-35 28 33 0 c19 0 49 -7
68 -16z m-379 -19 l11 -25 -55 0 c-50 0 -54 2 -42 16 13 16 44 32 64 33 6 1
15 -10 22 -24z m-497 -21 c0 -19 19 -18 42 3 17 15 18 15 18 -8 -1 -55 -82
-171 -108 -155 -16 10 -23 78 -13 115 17 57 61 90 61 45z m750 -29 c26 -23 26
-38 0 -30 -30 9 -25 -15 8 -42 l27 -22 -33 -1 c-43 0 -82 21 -122 66 -30 35
-31 38 -14 46 31 13 112 3 134 -17z m-445 -24 c-3 -5 -1 -12 5 -16 23 -14 7
-25 -40 -25 -56 0 -64 12 -22 34 30 17 66 21 57 7z m-515 -41 c0 -24 35 -28
44 -5 3 8 11 15 17 15 20 0 3 -78 -26 -120 -15 -22 -38 -46 -51 -55 -23 -15
-25 -15 -34 10 -16 43 -12 107 10 143 22 36 40 42 40 12z m2211 -7 c13 -16 12
-17 -3 -4 -17 13 -22 21 -14 21 2 0 10 -8 17 -17z m-1429 -26 c37 -20 42 -43
7 -34 -29 8 -24 -28 7 -41 35 -17 21 -32 -24 -25 -44 6 -100 42 -130 82 l-21
29 37 10 c44 11 74 6 124 -21z m2635 11 c45 -50 55 -105 28 -157 -13 -27 -13
-29 11 -39 13 -7 32 -27 41 -47 21 -45 9 -100 -29 -128 -39 -29 -58 -17 -58
38 0 41 -2 45 -24 45 -39 0 -76 36 -76 75 0 26 8 40 35 63 35 28 35 29 15 47
-13 12 -20 31 -20 54 0 40 8 55 30 64 24 9 25 8 47 -15z m-1457 -12 c0 -2 -8
-10 -17 -17 -16 -13 -17 -12 -4 4 13 16 21 21 21 13z m-30 -40 c0 -2 -7 -7
-16 -10 -8 -3 -12 -2 -9 4 6 10 25 14 25 6z m-1601 -35 c18 -18 18 -19 -6 -30
-13 -6 -38 -11 -56 -11 l-32 1 33 29 c38 35 37 35 61 11z m1948 -13 c-3 -8 -6
-5 -6 6 -1 11 2 17 5 13 3 -3 4 -12 1 -19z m-1654 -14 c31 -17 37 -39 7 -31
-34 9 -24 -26 13 -43 l32 -15 -29 -3 c-53 -6 -93 8 -140 49 -26 23 -45 44 -42
46 3 3 20 9 38 13 38 9 82 3 121 -16z m1712 6 c10 -11 16 -20 13 -20 -3 0 -13
9 -23 20 -10 11 -16 20 -13 20 3 0 13 -9 23 -20z m-2515 -21 c0 -23 22 -25 40
-4 19 23 30 18 30 -12 0 -38 -34 -103 -75 -143 l-34 -33 -12 29 c-15 40 -7
133 15 166 20 30 36 29 36 -3z m2467 -21 c-3 -8 -6 -5 -6 6 -1 11 2 17 5 13 3
-3 4 -12 1 -19z m-2140 -30 c-2 -7 2 -21 10 -30 14 -15 13 -18 -8 -23 -30 -7
-56 -9 -93 -7 l-29 2 23 25 c13 14 38 29 54 34 44 13 48 13 43 -1z m2150 -30
c-3 -7 -5 -2 -5 12 0 14 2 19 5 13 2 -7 2 -19 0 -25z m-338 -31 l30 -52 -19
-245 c-10 -135 -24 -319 -30 -410 -6 -91 -24 -347 -40 -570 -16 -223 -36 -499
-44 -615 -46 -641 -58 -815 -76 -1060 -11 -148 -20 -280 -20 -292 l0 -23 -190
0 -190 0 0 23 c0 12 31 211 70 442 38 231 101 614 140 850 102 621 190 1154
265 1603 36 216 65 395 65 398 0 13 12 -2 39 -49z m531 -1581 c149 -895 273
-1641 277 -1657 l6 -29 -202 0 -201 0 0 28 c0 15 -9 142 -20 282 -10 140 -26
361 -35 490 -8 129 -26 386 -40 570 -13 184 -27 371 -30 415 -3 44 -18 265
-35 490 -16 226 -36 518 -45 650 -9 132 -18 249 -20 260 -3 16 64 139 72 132
1 -1 124 -735 273 -1631z m-59 1587 c13 -16 12 -17 -3 -4 -10 7 -18 15 -18 17
0 8 8 3 21 -13z m-2813 -31 c4 -27 10 -27 39 0 l23 21 0 -44 c0 -45 -40 -130
-74 -158 -14 -12 -18 -9 -31 22 -20 48 -19 108 2 152 18 38 36 41 41 7z m841
6 l46 -23 -32 -3 c-45 -4 -42 -28 5 -49 l37 -17 -32 -4 c-47 -5 -107 15 -154
51 -69 52 -63 64 35 66 33 1 65 -7 95 -21z m1848 0 c-3 -8 -6 -5 -6 6 -1 11 2
17 5 13 3 -3 4 -12 1 -19z m-470 -20 c-3 -7 -5 -2 -5 12 0 14 2 19 5 13 2 -7
2 -19 0 -25z m2048 -12 c33 -33 42 -89 21 -132 -8 -19 -20 -34 -26 -34 -17 0
-11 -21 13 -40 18 -15 22 -28 22 -70 0 -44 -4 -55 -28 -76 -56 -48 -111 -22
-87 41 6 15 9 29 8 30 -2 1 -17 10 -34 18 -17 9 -37 30 -44 46 -16 40 4 74 55
91 39 13 41 17 20 44 -21 28 -18 53 10 81 30 31 40 31 70 1z m-1818 -48 c-2
-13 -4 -3 -4 22 0 25 2 35 4 23 2 -13 2 -33 0 -45z m250 20 c-3 -7 -5 -2 -5
12 0 14 2 19 5 13 2 -7 2 -19 0 -25z m-2320 -24 c13 -9 11 -12 -13 -22 -35
-13 -104 -22 -104 -13 0 17 36 54 64 66 27 12 31 12 35 -3 2 -9 10 -21 18 -28z
m1830 14 c-3 -8 -6 -5 -6 6 -1 11 2 17 5 13 3 -3 4 -12 1 -19z m-1542 -34 l40
-18 -32 -4 c-18 -2 -33 -5 -33 -7 0 -17 15 -35 30 -35 10 0 24 -7 31 -17 13
-15 9 -16 -42 -10 -62 6 -100 22 -149 64 l-33 27 29 13 c37 17 108 11 159 -13z
m1532 -26 c-3 -7 -5 -2 -5 12 0 14 2 19 5 13 2 -7 2 -19 0 -25z m3182 -14 c12
-15 21 -33 21 -40 0 -18 10 -17 34 1 27 20 75 19 83 -1 18 -49 -56 -120 -115
-110 -18 2 -45 14 -61 25 l-29 21 -52 -35 c-67 -45 -116 -47 -162 -7 -54 49
-11 88 85 79 45 -4 49 -2 58 22 28 72 99 95 138 45z m-2922 -51 c-2 -16 -4 -5
-4 22 0 28 2 40 4 28 2 -13 2 -35 0 -50z m468 16 c9 -17 15 -33 13 -35 -3 -2
-12 12 -21 31 -21 43 -13 47 8 4z m-3108 1 c3 -11 12 -20 20 -20 8 0 17 9 20
20 16 62 37 -21 23 -87 -11 -46 -56 -133 -69 -133 -13 0 -41 94 -41 136 0 75
34 135 47 84z m2370 -2 c-3 -8 -6 -5 -6 6 -1 11 2 17 5 13 3 -3 4 -12 1 -19z
m250 -40 c-2 -13 -4 -3 -4 22 0 25 2 35 4 23 2 -13 2 -33 0 -45z m-414 17 c-9
-19 -18 -33 -21 -31 -4 5 26 66 33 66 3 0 -3 -16 -12 -35z m-1873 10 c0 -9 10
-19 21 -24 20 -7 19 -9 -14 -24 -33 -16 -97 -23 -97 -11 0 16 24 45 48 58 35
19 42 19 42 1z m2567 -7 c-3 -8 -6 -5 -6 6 -1 11 2 17 5 13 3 -3 4 -12 1 -19z
m-2239 -34 c38 -15 44 -39 7 -32 -39 8 -31 -18 13 -41 l37 -20 -50 0 c-54 -1
-112 22 -160 62 -34 28 -31 36 17 47 38 9 89 3 136 -16z m1699 -6 c-3 -8 -6
-5 -6 6 -1 11 2 17 5 13 3 -3 4 -12 1 -19z m550 -20 c-3 -7 -5 -2 -5 12 0 14
2 19 5 13 2 -7 2 -19 0 -25z m-260 -60 c-2 -13 -4 -3 -4 22 0 25 2 35 4 23 2
-13 2 -33 0 -45z m270 10 c-3 -7 -5 -2 -5 12 0 14 2 19 5 13 2 -7 2 -19 0 -25z
m-310 -40 c-2 -13 -4 -3 -4 22 0 25 2 35 4 23 2 -13 2 -33 0 -45z m-2112 -8
c29 -11 25 -30 -6 -30 -21 0 -22 -1 -13 -24 3 -9 14 -16 24 -16 10 0 26 -3 35
-6 29 -12 -5 -24 -67 -24 -65 0 -99 11 -147 47 -31 24 -32 27 -15 36 64 37
124 42 189 17z m2432 -2 c-3 -8 -6 -5 -6 6 -1 11 2 17 5 13 3 -3 4 -12 1 -19z
m1939 7 c49 -33 36 -135 -22 -183 -35 -29 -35 -29 -18 -58 23 -40 12 -98 -27
-136 -23 -24 -36 -29 -66 -26 -31 2 -39 7 -41 27 -2 13 5 36 16 51 l20 27 -29
27 c-22 21 -29 37 -29 65 0 47 24 71 77 78 l38 5 -3 48 c-3 42 0 50 23 69 33
25 35 25 61 6z m-2529 -27 c-3 -8 -6 -5 -6 6 -1 11 2 17 5 13 3 -3 4 -12 1
-19z m-2437 -69 c0 -33 -27 -117 -45 -143 -12 -16 -17 -17 -30 -6 -25 21 -55
87 -57 123 -2 53 11 97 28 90 8 -3 14 -11 14 -19 0 -25 36 -15 50 14 l13 27
13 -30 c7 -16 13 -42 14 -56z m278 45 c14 -10 13 -13 -5 -22 -29 -16 -103 -27
-103 -15 0 11 37 46 65 61 15 8 21 8 24 -1 2 -7 11 -17 19 -23z m2479 -41 c-2
-16 -4 -5 -4 22 0 28 2 40 4 28 2 -13 2 -35 0 -50z m280 25 c-3 -7 -5 -2 -5
12 0 14 2 19 5 13 2 -7 2 -19 0 -25z m-610 -20 c-3 -7 -5 -2 -5 12 0 14 2 19
5 13 2 -7 2 -19 0 -25z m270 -45 c-2 -16 -4 -5 -4 22 0 28 2 40 4 28 2 -13 2
-35 0 -50z m350 15 c-3 -8 -6 -5 -6 6 -1 11 2 17 5 13 3 -3 4 -12 1 -19z
m-630 -20 c-3 -7 -5 -2 -5 12 0 14 2 19 5 13 2 -7 2 -19 0 -25z m350 -80 c-2
-13 -4 -3 -4 22 0 25 2 35 4 23 2 -13 2 -33 0 -45z m-2318 46 c38 -8 40 -21 6
-30 -36 -9 -26 -28 18 -35 53 -8 54 -15 2 -29 -55 -15 -136 -9 -188 16 -43 21
-45 28 -14 46 61 35 112 44 176 32z m1958 -26 c-3 -7 -5 -2 -5 12 0 14 2 19 5
13 2 -7 2 -19 0 -25z m-220 0 c-3 -8 -6 -5 -6 6 -1 11 2 17 5 13 3 -3 4 -12 1
-19z m500 -55 c-2 -16 -4 -5 -4 22 0 28 2 40 4 28 2 -13 2 -35 0 -50z m640 35
c-3 -8 -6 -5 -6 6 -1 11 2 17 5 13 3 -3 4 -12 1 -19z m-3207 -18 l20 -20 -32
-20 c-18 -11 -38 -20 -45 -20 -6 0 -19 -3 -28 -6 -16 -6 -16 -5 -1 24 13 25
51 62 63 62 2 0 12 -9 23 -20z m2057 -12 c-3 -7 -5 -2 -5 12 0 14 2 19 5 13 2
-7 2 -19 0 -25z m220 0 c-3 -8 -6 -5 -6 6 -1 11 2 17 5 13 3 -3 4 -12 1 -19z
m670 -20 c-3 -7 -5 -2 -5 12 0 14 2 19 5 13 2 -7 2 -19 0 -25z m270 -10 c-3
-7 -5 -2 -5 12 0 14 2 19 5 13 2 -7 2 -19 0 -25z m-3478 -33 c11 -40 0 -99
-30 -157 -20 -38 -21 -39 -39 -23 -28 25 -60 96 -60 133 0 63 35 109 47 62 7
-28 32 -25 43 6 12 31 26 24 39 -21z m2308 8 c-3 -10 -5 -4 -5 12 0 17 2 24 5
18 2 -7 2 -21 0 -30z m1480 -40 c-2 -16 -4 -3 -4 27 0 30 2 43 4 28 2 -16 2
-40 0 -55z m-1780 15 c-3 -7 -5 -2 -5 12 0 14 2 19 5 13 2 -7 2 -19 0 -25z
m1210 10 c-3 -8 -6 -5 -6 6 -1 11 2 17 5 13 3 -3 4 -12 1 -19z m270 -35 c-3
-10 -5 -2 -5 17 0 19 2 27 5 18 2 -10 2 -26 0 -35z m-670 -15 c-2 -13 -4 -5
-4 17 -1 22 1 32 4 23 2 -10 2 -28 0 -40z m3319 4 c8 -9 14 -32 14 -51 0 -28
3 -32 18 -26 34 15 72 17 87 5 36 -30 3 -88 -62 -110 -40 -14 -94 7 -119 47
-10 15 -19 30 -20 32 -2 1 -28 -9 -59 -24 -84 -42 -144 -26 -182 49 -14 27
-14 31 3 43 25 18 88 16 127 -3 22 -12 32 -13 35 -5 8 25 54 70 75 73 29 5 67
-9 83 -30z m-3839 -24 c-2 -13 -4 -5 -4 17 -1 22 1 32 4 23 2 -10 2 -28 0 -40z
m-1774 23 c7 -7 1 -14 -21 -24 -39 -16 -28 -41 18 -43 59 -3 57 -21 -5 -39
-69 -20 -118 -15 -193 21 -62 30 -59 38 21 79 44 22 61 26 111 22 32 -3 63
-10 69 -16z m1494 -13 c-3 -7 -5 -2 -5 12 0 14 2 19 5 13 2 -7 2 -19 0 -25z
m1210 0 c-3 -7 -5 -2 -5 12 0 14 2 19 5 13 2 -7 2 -19 0 -25z m-1230 -10 c-3
-7 -5 -2 -5 12 0 14 2 19 5 13 2 -7 2 -19 0 -25z m-4020 -100 c-2 -24 -4 -5
-4 42 0 47 2 66 4 43 2 -24 2 -62 0 -85z m5790 90 c-3 -7 -5 -2 -5 12 0 14 2
19 5 13 2 -7 2 -19 0 -25z m-3624 -8 c3 -11 12 -20 21 -20 9 0 16 -4 16 -9 0
-24 -112 -92 -127 -78 -11 12 8 57 38 92 36 40 45 43 52 15z m3654 -2 c-3 -8
-6 -5 -6 6 -1 11 2 17 5 13 3 -3 4 -12 1 -19z m-1770 -20 c-3 -7 -5 -2 -5 12
0 14 2 19 5 13 2 -7 2 -19 0 -25z m1210 0 c-3 -7 -5 -2 -5 12 0 14 2 19 5 13
2 -7 2 -19 0 -25z m-410 -25 c-3 -10 -5 -2 -5 17 0 19 2 27 5 18 2 -10 2 -26
0 -35z m670 -70 c-2 -21 -4 -4 -4 37 0 41 2 58 4 38 2 -21 2 -55 0 -75z m260
85 c-3 -8 -6 -5 -6 6 -1 11 2 17 5 13 3 -3 4 -12 1 -19z m-1250 -10 c-3 -8 -6
-5 -6 6 -1 11 2 17 5 13 3 -3 4 -12 1 -19z m1300 0 c-3 -8 -6 -5 -6 6 -1 11 2
17 5 13 3 -3 4 -12 1 -19z m-1770 -20 c-3 -8 -6 -5 -6 6 -1 11 2 17 5 13 3 -3
4 -12 1 -19z m770 -15 c-3 -10 -5 -4 -5 12 0 17 2 24 5 18 2 -7 2 -21 0 -30z
m440 5 c-3 -8 -6 -5 -6 6 -1 11 2 17 5 13 3 -3 4 -12 1 -19z m500 0 c-3 -8 -6
-5 -6 6 -1 11 2 17 5 13 3 -3 4 -12 1 -19z m1675 5 c23 -21 23 -57 -1 -110
-16 -35 -27 -44 -69 -59 -47 -17 -49 -20 -41 -42 13 -35 -6 -86 -42 -117 -35
-28 -93 -34 -124 -11 -17 12 -18 17 -7 40 6 14 23 31 37 38 24 11 34 28 17 28
-13 0 -32 47 -32 80 0 17 9 38 23 51 19 18 30 20 75 15 l52 -6 0 30 c0 37 39
80 71 80 12 0 31 -7 41 -17z m-5596 -38 c19 -50 15 -109 -11 -171 l-15 -37
-30 28 c-57 54 -87 153 -60 195 8 12 11 12 28 -3 26 -24 39 -21 46 8 9 37 22
31 42 -20z m2671 3 c-3 -7 -5 -2 -5 12 0 14 2 19 5 13 2 -7 2 -19 0 -25z m430
-30 c-3 -7 -5 -2 -5 12 0 14 2 19 5 13 2 -7 2 -19 0 -25z m-440 -20 c-3 -7 -5
-2 -5 12 0 14 2 19 5 13 2 -7 2 -19 0 -25z m330 -20 c-2 -13 -4 -5 -4 17 -1
22 1 32 4 23 2 -10 2 -28 0 -40z m-4840 -2300 c-1 -431 -2 -79 -2 782 0 861 1
1213 2 783 2 -431 2 -1135 0 -1565z m2398 2322 c18 -7 17 -9 -12 -22 -26 -11
-30 -17 -21 -26 7 -7 27 -12 44 -12 46 0 49 -14 8 -33 -58 -28 -109 -31 -179
-12 -36 9 -65 20 -65 24 0 11 41 46 69 61 55 28 117 36 156 20z m1922 -72 c-2
-13 -4 -5 -4 17 -1 22 1 32 4 23 2 -10 2 -28 0 -40z m180 10 c-3 -7 -5 -2 -5
12 0 14 2 19 5 13 2 -7 2 -19 0 -25z m790 -10 c-3 -8 -6 -5 -6 6 -1 11 2 17 5
13 3 -3 4 -12 1 -19z m220 -15 c-3 -10 -5 -4 -5 12 0 17 2 24 5 18 2 -7 2 -21
0 -30z m-3487 7 c6 -11 20 -20 32 -20 21 0 20 -2 -8 -31 -29 -31 -111 -75
-121 -66 -11 12 11 71 39 103 35 39 43 41 58 14z m2937 -72 c-2 -18 -4 -6 -4
27 0 33 2 48 4 33 2 -15 2 -42 0 -60z m-470 40 c-3 -8 -6 -5 -6 6 -1 11 2 17
5 13 3 -3 4 -12 1 -19z m340 -35 c-3 -10 -5 -2 -5 17 0 19 2 27 5 18 2 -10 2
-26 0 -35z m470 25 c-3 -8 -6 -5 -6 6 -1 11 2 17 5 13 3 -3 4 -12 1 -19z
m-970 -25 c-3 -10 -5 -4 -5 12 0 17 2 24 5 18 2 -7 2 -21 0 -30z m-2586 -79
c9 -39 9 -67 -1 -123 l-12 -73 -40 39 c-51 48 -78 105 -78 166 0 36 4 47 15
47 9 0 18 -7 21 -15 11 -27 32 -15 39 22 l7 37 19 -24 c10 -14 24 -48 30 -76z
m3756 64 c-3 -7 -5 -2 -5 12 0 14 2 19 5 13 2 -7 2 -19 0 -25z m-190 -20 c-3
-7 -5 -2 -5 12 0 14 2 19 5 13 2 -7 2 -19 0 -25z m-1630 -10 c-3 -7 -5 -2 -5
12 0 14 2 19 5 13 2 -7 2 -19 0 -25z m-1429 6 c29 -8 28 -22 -3 -36 -32 -14
-18 -42 21 -42 16 -1 31 -5 33 -11 6 -13 -77 -55 -109 -55 -34 0 -92 17 -114
33 -17 12 -16 15 10 46 27 33 94 70 124 71 8 0 25 -3 38 -6z m3899 -16 c-3 -8
-6 -5 -6 6 -1 11 2 17 5 13 3 -3 4 -12 1 -19z m-1159 -363 c-1 -55 -5 -25 -14
95 -7 96 -12 198 -12 225 1 28 6 -15 14 -95 7 -80 12 -181 12 -225z m329 333
c-3 -8 -6 -5 -6 6 -1 11 2 17 5 13 3 -3 4 -12 1 -19z m-1650 -25 c-3 -10 -5
-4 -5 12 0 17 2 24 5 18 2 -7 2 -21 0 -30z m47 21 c3 -8 2 -12 -4 -9 -6 3 -10
10 -10 16 0 14 7 11 14 -7z m2097 -7 c-10 -9 -11 -8 -5 6 3 10 9 15 12 12 3
-3 0 -11 -7 -18z m-1344 -19 c-3 -7 -5 -2 -5 12 0 14 2 19 5 13 2 -7 2 -19 0
-25z m1643 12 c-6 -11 -13 -20 -16 -20 -2 0 0 9 6 20 6 11 13 20 16 20 2 0 0
-9 -6 -20z m47 -42 c-2 -13 -4 -3 -4 22 0 25 2 35 4 23 2 -13 2 -33 0 -45z
m-1350 5 c-3 -10 -5 -2 -5 17 0 19 2 27 5 18 2 -10 2 -26 0 -35z m520 -5 c-3
-7 -5 -2 -5 12 0 14 2 19 5 13 2 -7 2 -19 0 -25z m-870 -20 c-3 -7 -5 -2 -5
12 0 14 2 19 5 13 2 -7 2 -19 0 -25z m-2535 -18 c33 0 33 0 9 -49 -20 -38 -83
-101 -101 -101 -27 0 -2 136 32 178 10 12 14 11 22 -7 6 -14 18 -21 38 -21z
m4158 37 c0 -2 -10 -12 -22 -23 l-23 -19 19 23 c18 21 26 27 26 19z m-743 -49
c-3 -8 -6 -5 -6 6 -1 11 2 17 5 13 3 -3 4 -12 1 -19z m-890 -30 c-3 -7 -5 -2
-5 12 0 14 2 19 5 13 2 -7 2 -19 0 -25z m350 -50 c-2 -13 -4 -3 -4 22 0 25 2
35 4 23 2 -13 2 -33 0 -45z m1360 -20 c-2 -13 -4 -3 -4 22 0 25 2 35 4 23 2
-13 2 -33 0 -45z m-1720 20 c-3 -7 -5 -2 -5 12 0 14 2 19 5 13 2 -7 2 -19 0
-25z m3936 21 c29 -13 47 -48 47 -89 0 -27 2 -28 39 -23 31 4 41 1 54 -17 20
-29 11 -58 -27 -81 -62 -38 -136 -11 -166 61 -7 16 -14 30 -15 30 -1 0 -19 -7
-38 -15 -46 -19 -100 -19 -137 0 -36 19 -72 101 -49 116 23 16 98 3 132 -21
29 -22 31 -22 43 -5 17 22 65 55 81 55 7 0 23 -5 36 -11z m-4706 -46 c-3 -10
-5 -2 -5 17 0 19 2 27 5 18 2 -10 2 -26 0 -35z m-1473 22 c-3 -8 -14 -17 -25
-20 -41 -13 -12 -41 38 -36 18 1 33 -1 33 -6 0 -12 -61 -51 -93 -58 -35 -9
-109 2 -132 19 -17 12 -17 15 6 45 31 43 84 70 136 71 33 0 41 -3 37 -15z
m2726 -472 c16 -257 38 -639 50 -848 11 -209 22 -388 24 -397 4 -16 -7 -18
-116 -18 l-119 0 5 53 c8 67 22 262 41 547 8 124 26 374 39 555 14 182 28 388
32 458 4 70 9 125 11 123 3 -3 18 -215 33 -473z m2662 450 c54 -48 -21 -173
-104 -173 -24 0 -26 -2 -22 -37 9 -70 -46 -128 -117 -126 -75 3 -94 49 -34 84
40 24 41 26 19 50 -24 27 -21 89 6 111 24 19 80 24 109 8 15 -8 20 -3 30 30
19 63 74 89 113 53z m-5898 -101 c9 -25 19 -73 22 -108 8 -76 -1 -80 -63 -35
-46 33 -75 71 -91 120 -18 50 -16 72 6 64 9 -4 20 -11 23 -16 13 -18 29 5 29
40 l0 37 30 -29 c16 -15 36 -48 44 -73z m2743 76 c-3 -8 -6 -5 -6 6 -1 11 2
17 5 13 3 -3 4 -12 1 -19z m930 -10 c-3 -8 -6 -5 -6 6 -1 11 2 17 5 13 3 -3 4
-12 1 -19z m-1680 -30 c-3 -7 -5 -2 -5 12 0 14 2 19 5 13 2 -7 2 -19 0 -25z
m1110 -30 c-2 -13 -4 -3 -4 22 0 25 2 35 4 23 2 -13 2 -33 0 -45z m1360 30
c-3 -7 -5 -2 -5 12 0 14 2 19 5 13 2 -7 2 -19 0 -25z m-2010 -20 c-3 -8 -6 -5
-6 6 -1 11 2 17 5 13 3 -3 4 -12 1 -19z m1230 -10 c-3 -7 -5 -2 -5 12 0 14 2
19 5 13 2 -7 2 -19 0 -25z m320 0 c-3 -8 -6 -5 -6 6 -1 11 2 17 5 13 3 -3 4
-12 1 -19z m-2000 -20 c-3 -8 -6 -5 -6 6 -1 11 2 17 5 13 3 -3 4 -12 1 -19z
m2450 0 c-3 -8 -6 -5 -6 6 -1 11 2 17 5 13 3 -3 4 -12 1 -19z m-2157 -8 c6
-11 8 -20 6 -20 -3 0 -10 9 -16 20 -6 11 -8 20 -6 20 3 0 10 -9 16 -20z m167
-2 c-3 -8 -6 -5 -6 6 -1 11 2 17 5 13 3 -3 4 -12 1 -19z m-2251 -8 c19 8 24 6
24 -6 0 -24 -35 -87 -66 -117 -25 -25 -29 -26 -37 -11 -14 25 -13 85 2 121 12
30 15 31 33 18 14 -9 28 -11 44 -5z m3781 -2 c-3 -8 -6 -5 -6 6 -1 11 2 17 5
13 3 -3 4 -12 1 -19z m-300 -10 c-3 -8 -6 -5 -6 6 -1 11 2 17 5 13 3 -3 4 -12
1 -19z m-580 -25 c-3 -10 -5 -4 -5 12 0 17 2 24 5 18 2 -7 2 -21 0 -30z m-20
-45 c-2 -13 -4 -5 -4 17 -1 22 1 32 4 23 2 -10 2 -28 0 -40z m890 30 c-3 -8
-6 -5 -6 6 -1 11 2 17 5 13 3 -3 4 -12 1 -19z m-3496 -7 c-6 -10 -18 -22 -27
-25 -16 -6 -16 -8 -1 -23 13 -14 21 -15 42 -5 14 7 36 12 48 12 19 -1 14 -8
-30 -49 -56 -53 -81 -61 -180 -61 -62 0 -64 1 -58 23 22 75 111 147 182 147
30 0 33 -2 24 -19z m3216 -13 c-3 -7 -5 -2 -5 12 0 14 2 19 5 13 2 -7 2 -19 0
-25z m-990 -20 c-3 -8 -6 -5 -6 6 -1 11 2 17 5 13 3 -3 4 -12 1 -19z m600 -90
c-2 -18 -4 -6 -4 27 0 33 2 48 4 33 2 -15 2 -42 0 -60z m400 60 c-3 -8 -6 -5
-6 6 -1 11 2 17 5 13 3 -3 4 -12 1 -19z m-610 -40 c-2 -13 -4 -5 -4 17 -1 22
1 32 4 23 2 -10 2 -28 0 -40z m-400 10 c-3 -7 -5 -2 -5 12 0 14 2 19 5 13 2
-7 2 -19 0 -25z m-2717 -104 c15 -54 25 -194 13 -194 -18 0 -99 57 -130 93
-31 36 -53 90 -53 135 0 25 21 29 40 8 20 -25 40 -7 40 38 l1 41 38 -41 c22
-23 44 -59 51 -80z m4101 89 c-12 -20 -14 -14 -5 12 4 9 9 14 11 11 3 -2 0
-13 -6 -23z m-1004 -35 c-2 -13 -4 -5 -4 17 -1 22 1 32 4 23 2 -10 2 -28 0
-40z m-390 0 c-3 -8 -6 -5 -6 6 -1 11 2 17 5 13 3 -3 4 -12 1 -19z m-10 -60
c-3 -7 -5 -2 -5 12 0 14 2 19 5 13 2 -7 2 -19 0 -25z m410 -20 c-2 -13 -4 -5
-4 17 -1 22 1 32 4 23 2 -10 2 -28 0 -40z m230 -40 c-2 -18 -4 -6 -4 27 0 33
2 48 4 33 2 -15 2 -42 0 -60z m-3152 32 c32 14 36 11 29 -17 -13 -55 -63 -133
-85 -133 -5 0 -13 18 -19 40 -10 39 -6 77 12 113 9 17 12 17 26 4 11 -10 24
-12 37 -7z m305 -10 c0 -5 -9 -19 -21 -31 -19 -19 -20 -23 -6 -37 13 -12 19
-13 31 -3 8 7 27 11 43 9 l28 -4 -46 -46 c-55 -53 -119 -74 -198 -63 l-49 7
17 41 c29 75 105 133 179 136 12 1 22 -3 22 -9z m2197 -12 c-3 -8 -6 -5 -6 6
-1 11 2 17 5 13 3 -3 4 -12 1 -19z m1070 -10 c-3 -8 -6 -5 -6 6 -1 11 2 17 5
13 3 -3 4 -12 1 -19z m866 -3 c-3 -9 -8 -14 -10 -11 -3 3 -2 9 2 15 9 16 15
13 8 -4z m-2708 -35 c10 -11 16 -20 13 -20 -3 0 -13 9 -23 20 -10 11 -16 20
-13 20 3 0 13 -9 23 -20z m1852 -22 c-3 -7 -5 -2 -5 12 0 14 2 19 5 13 2 -7 2
-19 0 -25z m-670 -25 c-3 -10 -5 -2 -5 17 0 19 2 27 5 18 2 -10 2 -26 0 -35z
m250 -15 c-2 -13 -4 -3 -4 22 0 25 2 35 4 23 2 -13 2 -33 0 -45z m1203 28 c0
-2 -8 -10 -17 -17 -16 -13 -17 -12 -4 4 13 16 21 21 21 13z m-773 -38 c-3 -7
-5 -2 -5 12 0 14 2 19 5 13 2 -7 2 -19 0 -25z m-1110 -30 c-3 -8 -6 -5 -6 6
-1 11 2 17 5 13 3 -3 4 -12 1 -19z m3429 -14 c16 -23 16 -28 1 -60 -25 -52
-71 -76 -134 -71 -47 3 -53 1 -53 -15 0 -64 -85 -121 -145 -98 -85 32 -85 100
-1 100 25 0 25 2 20 44 -6 41 -4 48 25 77 36 35 61 34 115 -4 23 -17 31 -18
34 -7 20 59 108 81 138 34z m-6198 -25 c40 -40 72 -107 91 -191 l9 -40 -36 7
c-84 16 -173 87 -194 157 -14 46 -6 56 27 38 36 -19 51 -2 37 39 -10 27 -9 31
7 31 10 0 37 -18 59 -41z m3889 19 c-3 -8 -6 -5 -6 6 -1 11 2 17 5 13 3 -3 4
-12 1 -19z m-430 -60 c-2 -13 -4 -3 -4 22 0 25 2 35 4 23 2 -13 2 -33 0 -45z
m3371 7 l32 -35 37 20 c50 26 79 25 108 -5 27 -26 33 -72 15 -106 -9 -17 -7
-19 17 -19 39 0 73 -26 73 -55 0 -33 -36 -55 -88 -55 -56 0 -98 39 -108 99
l-7 41 -59 0 c-73 0 -115 20 -134 65 -20 48 -18 93 4 97 32 8 77 -12 110 -47z
m-4071 23 c-3 -8 -6 -5 -6 6 -1 11 2 17 5 13 3 -3 4 -12 1 -19z m429 -26 c-11
-10 -15 4 -8 28 l7 25 3 -23 c2 -13 1 -26 -2 -30z m1185 11 c-12 -20 -14 -14
-5 12 4 9 9 14 11 11 3 -2 0 -13 -6 -23z m-2354 -5 c-3 -8 -6 -5 -6 6 -1 11 2
17 5 13 3 -3 4 -12 1 -19z m1880 -10 c-3 -8 -6 -5 -6 6 -1 11 2 17 5 13 3 -3
4 -12 1 -19z m770 0 c-3 -8 -6 -5 -6 6 -1 11 2 17 5 13 3 -3 4 -12 1 -19z
m-4117 -17 c0 -11 -10 -27 -22 -36 -22 -16 -23 -16 -4 -30 14 -11 23 -12 32
-4 7 6 25 9 41 7 l28 -3 -45 -46 c-48 -50 -96 -69 -165 -68 -73 1 -78 7 -51
64 28 60 71 102 122 120 53 19 64 18 64 -4z m2197 -13 c-3 -7 -5 -2 -5 12 0
14 2 19 5 13 2 -7 2 -19 0 -25z m-2468 -55 c-15 -47 -48 -103 -60 -103 -18 0
-41 73 -36 113 6 47 20 65 39 49 9 -7 20 -7 38 3 23 12 25 12 28 -6 2 -11 -2
-36 -9 -56z m1748 15 c-2 -13 -4 -5 -4 17 -1 22 1 32 4 23 2 -10 2 -28 0 -40z
m2630 -5 c-3 -10 -5 -2 -5 17 0 19 2 27 5 18 2 -10 2 -26 0 -35z m-1920 -5
c-3 -8 -6 -5 -6 6 -1 11 2 17 5 13 3 -3 4 -12 1 -19z m730 -40 c-2 -13 -4 -3
-4 22 0 25 2 35 4 23 2 -13 2 -33 0 -45z m-300 -20 c-2 -13 -4 -5 -4 17 -1 22
1 32 4 23 2 -10 2 -28 0 -40z m-440 0 c-3 -7 -5 -2 -5 12 0 14 2 19 5 13 2 -7
2 -19 0 -25z m1190 0 c-3 -8 -6 -5 -6 6 -1 11 2 17 5 13 3 -3 4 -12 1 -19z
m1133 18 c0 -2 -8 -10 -17 -17 -16 -13 -17 -12 -4 4 13 16 21 21 21 13z
m-3013 -113 c-2 -21 -4 -4 -4 37 0 41 2 58 4 38 2 -21 2 -55 0 -75z m2444 70
c-12 -20 -14 -14 -5 12 4 9 9 14 11 11 3 -2 0 -13 -6 -23z m166 -65 c-2 -18
-4 -4 -4 32 0 36 2 50 4 33 2 -18 2 -48 0 -65z m-2427 47 c0 -5 -5 -3 -10 5
-5 8 -10 20 -10 25 0 6 5 3 10 -5 5 -8 10 -19 10 -25z m2087 3 c-3 -8 -6 -5
-6 6 -1 11 2 17 5 13 3 -3 4 -12 1 -19z m-1590 -10 c-3 -8 -6 -5 -6 6 -1 11 2
17 5 13 3 -3 4 -12 1 -19z m1210 -10 c-3 -7 -5 -2 -5 12 0 14 2 19 5 13 2 -7
2 -19 0 -25z m-470 -30 c-2 -13 -4 -5 -4 17 -1 22 1 32 4 23 2 -10 2 -28 0
-40z m1533 48 c0 -2 -8 -10 -17 -17 -16 -13 -17 -12 -4 4 13 16 21 21 21 13z
m-2603 -38 c-3 -7 -5 -2 -5 12 0 14 2 19 5 13 2 -7 2 -19 0 -25z m1090 -30
c-2 -13 -4 -3 -4 22 0 25 2 35 4 23 2 -13 2 -33 0 -45z m-1910 20 c-3 -8 -6
-5 -6 6 -1 11 2 17 5 13 3 -3 4 -12 1 -19z m1590 -40 c-2 -13 -4 -3 -4 22 0
25 2 35 4 23 2 -13 2 -33 0 -45z m1140 25 c-3 -10 -5 -4 -5 12 0 17 2 24 5 18
2 -7 2 -21 0 -30z m-4327 12 c54 -28 111 -125 125 -212 8 -51 2 -53 -78 -23
-63 24 -128 84 -150 141 l-16 40 42 -3 42 -3 -3 38 c-3 42 -2 43 38 22z m3967
-17 c-3 -7 -5 -2 -5 12 0 14 2 19 5 13 2 -7 2 -19 0 -25z m1180 10 c-3 -8 -6
-5 -6 6 -1 11 2 17 5 13 3 -3 4 -12 1 -19z m-3540 -55 c-3 -10 -5 -2 -5 17 0
19 2 27 5 18 2 -10 2 -26 0 -35z m-1017 20 c0 -3 -8 -15 -17 -25 -24 -27 -3
-46 32 -30 14 7 33 12 42 12 23 0 -40 -64 -83 -85 -30 -14 -154 -22 -154 -10
0 14 40 82 57 97 35 32 123 61 123 41z m4547 -60 c-2 -16 -4 -5 -4 22 0 28 2
40 4 28 2 -13 2 -35 0 -50z m-1160 25 c-3 -7 -5 -2 -5 12 0 14 2 19 5 13 2 -7
2 -19 0 -25z m-3661 -62 c-3 -17 -17 -49 -30 -71 l-25 -40 -21 49 c-16 35 -21
60 -17 88 6 48 10 52 34 40 13 -7 24 -6 38 4 19 14 20 13 23 -12 2 -15 1 -41
-2 -58z m4011 52 c-3 -7 -5 -2 -5 12 0 14 2 19 5 13 2 -7 2 -19 0 -25z m340
-30 c-2 -13 -4 -5 -4 17 -1 22 1 32 4 23 2 -10 2 -28 0 -40z m-2590 -5 c-3
-10 -5 -2 -5 17 0 19 2 27 5 18 2 -10 2 -26 0 -35z m650 15 c-3 -7 -5 -2 -5
12 0 14 2 19 5 13 2 -7 2 -19 0 -25z m770 -45 c-2 -16 -4 -3 -4 27 0 30 2 43
4 28 2 -16 2 -40 0 -55z m20 0 c-2 -16 -4 -5 -4 22 0 28 2 40 4 28 2 -13 2
-35 0 -50z m-340 -5 c-2 -13 -4 -3 -4 22 0 25 2 35 4 23 2 -13 2 -33 0 -45z
m810 30 c-3 -8 -6 -5 -6 6 -1 11 2 17 5 13 3 -3 4 -12 1 -19z m-1587 -8 c-6
-11 -13 -20 -16 -20 -2 0 0 9 6 20 6 11 13 20 16 20 2 0 0 -9 -6 -20z m317
-22 c-3 -8 -6 -5 -6 6 -1 11 2 17 5 13 3 -3 4 -12 1 -19z m2420 -55 c-2 -16
-4 -5 -4 22 0 28 2 40 4 28 2 -13 2 -35 0 -50z m-480 35 c-3 -8 -6 -5 -6 6 -1
11 2 17 5 13 3 -3 4 -12 1 -19z m-2570 -10 c-3 -8 -6 -5 -6 6 -1 11 2 17 5 13
3 -3 4 -12 1 -19z m-480 -45 c-3 -10 -5 -2 -5 17 0 19 2 27 5 18 2 -10 2 -26
0 -35z m1100 15 c-3 -7 -5 -2 -5 12 0 14 2 19 5 13 2 -7 2 -19 0 -25z m480
-15 c-3 -10 -5 -2 -5 17 0 19 2 27 5 18 2 -10 2 -26 0 -35z m-20 -45 c-2 -13
-4 -5 -4 17 -1 22 1 32 4 23 2 -10 2 -28 0 -40z m-2579 15 c-3 -16 -8 -35 -12
-44 -5 -11 -1 -19 10 -23 12 -5 25 3 45 26 15 18 30 30 34 26 14 -13 -18 -110
-49 -151 -27 -36 -114 -96 -138 -97 -5 0 -8 30 -8 68 0 80 30 153 79 195 41
34 44 34 39 0z m2109 -5 c-3 -7 -5 -2 -5 12 0 14 2 19 5 13 2 -7 2 -19 0 -25z
m810 -45 c-2 -16 -4 -3 -4 27 0 30 2 43 4 28 2 -16 2 -40 0 -55z m1640 20 c-3
-10 -5 -4 -5 12 0 17 2 24 5 18 2 -7 2 -21 0 -30z m833 6 l31 -32 27 26 c35
32 63 40 98 27 56 -22 59 -62 8 -111 -32 -31 -40 -34 -92 -33 -31 0 -66 4 -78
8 -18 6 -22 3 -27 -23 -18 -89 -201 -93 -223 -5 -8 33 7 44 64 44 l42 0 0 45
c0 58 25 85 79 85 31 0 46 -7 71 -31z m-4383 -26 c-3 -10 -5 -4 -5 12 0 17 2
24 5 18 2 -7 2 -21 0 -30z m1930 -5 c-3 -7 -5 -2 -5 12 0 14 2 19 5 13 2 -7 2
-19 0 -25z m-840 0 c-3 -8 -6 -5 -6 6 -1 11 2 17 5 13 3 -3 4 -12 1 -19z m490
-40 c-2 -13 -4 -5 -4 17 -1 22 1 32 4 23 2 -10 2 -28 0 -40z m840 30 c-3 -8
-6 -5 -6 6 -1 11 2 17 5 13 3 -3 4 -12 1 -19z m1140 -55 c-3 -10 -5 -2 -5 17
0 19 2 27 5 18 2 -10 2 -26 0 -35z m-3570 -96 c-2 -23 -3 -1 -3 48 0 50 1 68
3 42 2 -26 2 -67 0 -90z m3238 94 c-21 -43 -29 -39 -8 4 9 19 18 33 21 31 2
-2 -4 -18 -13 -35z m-4470 -11 c7 -42 -18 -150 -35 -150 -16 0 -50 52 -61 92
-13 49 -6 72 21 65 11 -3 26 3 36 14 25 27 31 24 39 -21z m2802 3 c-3 -10 -5
-4 -5 12 0 17 2 24 5 18 2 -7 2 -21 0 -30z m870 15 c-3 -8 -6 -5 -6 6 -1 11 2
17 5 13 3 -3 4 -12 1 -19z m-3965 -9 c51 -26 92 -70 124 -131 13 -26 24 -50
24 -53 0 -12 -100 -4 -145 11 -44 16 -125 83 -125 105 0 5 15 9 34 9 43 0 52
13 32 42 -31 44 -10 51 56 17z m6734 -23 c19 -19 34 -43 34 -55 0 -25 -2 -25
43 -6 52 21 84 19 112 -10 29 -28 33 -80 10 -111 -19 -25 -19 -34 0 -34 9 0
29 -7 45 -15 57 -30 28 -95 -42 -95 -79 0 -118 41 -118 125 0 44 -1 45 -31 45
-48 0 -106 20 -130 46 -22 23 -37 99 -26 129 11 28 66 18 103 -19z m-4646 -11
c0 -5 -5 -3 -10 5 -5 8 -10 20 -10 25 0 6 5 3 10 -5 5 -8 10 -19 10 -25z
m1367 -42 c-2 -16 -4 -5 -4 22 0 28 2 40 4 28 2 -13 2 -35 0 -50z m520 25 c-3
-7 -5 -2 -5 12 0 14 2 19 5 13 2 -7 2 -19 0 -25z m-870 -40 c-2 -13 -4 -5 -4
17 -1 22 1 32 4 23 2 -10 2 -28 0 -40z m370 0 c-2 -13 -4 -5 -4 17 -1 22 1 32
4 23 2 -10 2 -28 0 -40z m-870 10 c-3 -8 -6 -5 -6 6 -1 11 2 17 5 13 3 -3 4
-12 1 -19z m1380 -20 c-3 -7 -5 -2 -5 12 0 14 2 19 5 13 2 -7 2 -19 0 -25z
m1110 -25 c-3 -10 -5 -4 -5 12 0 17 2 24 5 18 2 -7 2 -21 0 -30z m-4465 -19
c-2 -13 -8 -27 -13 -30 -15 -9 -10 -21 10 -27 12 -3 27 5 44 24 46 52 58 35
31 -43 -27 -80 -92 -141 -191 -179 l-26 -10 6 70 c7 89 36 154 89 203 43 40
59 37 50 -8z m1965 4 c-3 -7 -5 -2 -5 12 0 14 2 19 5 13 2 -7 2 -19 0 -25z
m1400 -10 c-3 -8 -6 -5 -6 6 -1 11 2 17 5 13 3 -3 4 -12 1 -19z m484 -25 c-12
-20 -14 -14 -5 12 4 9 9 14 11 11 3 -2 0 -13 -6 -23z m606 5 c-3 -8 -6 -5 -6
6 -1 11 2 17 5 13 3 -3 4 -12 1 -19z m-2500 -20 c-3 -7 -5 -2 -5 12 0 14 2 19
5 13 2 -7 2 -19 0 -25z m510 -20 c-2 -13 -4 -5 -4 17 -1 22 1 32 4 23 2 -10 2
-28 0 -40z m370 -25 c-2 -16 -4 -3 -4 27 0 30 2 43 4 28 2 -16 2 -40 0 -55z
m20 5 c-2 -13 -4 -3 -4 22 0 25 2 35 4 23 2 -13 2 -33 0 -45z m-1940 30 c-3
-8 -6 -5 -6 6 -1 11 2 17 5 13 3 -3 4 -12 1 -19z m613 -13 c0 -5 -5 -3 -10 5
-5 8 -10 20 -10 25 0 6 5 3 10 -5 5 -8 10 -19 10 -25z m-590 -40 c0 -5 -5 -3
-10 5 -5 8 -10 20 -10 25 0 6 5 3 10 -5 5 -8 10 -19 10 -25z m1007 3 c-3 -7
-5 -2 -5 12 0 14 2 19 5 13 2 -7 2 -19 0 -25z m2053 28 c0 -2 -8 -10 -17 -17
-16 -13 -17 -12 -4 4 13 16 21 21 21 13z m-4215 -86 c3 -21 1 -56 -5 -79 l-11
-41 -29 15 c-37 19 -59 52 -67 99 -5 33 -4 36 19 36 14 0 33 9 44 21 17 19 19
19 30 4 7 -9 15 -34 19 -55z m1616 43 c13 -16 12 -17 -3 -4 -10 7 -18 15 -18
17 0 8 8 3 21 -13z m-1905 -19 c64 -31 172 -175 140 -187 -22 -9 -144 11 -179
29 -34 17 -107 83 -107 96 0 4 18 8 40 8 45 0 51 14 23 57 l-18 26 34 -6 c18
-4 48 -14 67 -23z m2441 -16 c-3 -7 -5 -2 -5 12 0 14 2 19 5 13 2 -7 2 -19 0
-25z m1450 0 c-3 -8 -6 -5 -6 6 -1 11 2 17 5 13 3 -3 4 -12 1 -19z m-520 -55
c-2 -16 -4 -5 -4 22 0 28 2 40 4 28 2 -13 2 -35 0 -50z m1073 64 c0 -2 -17
-19 -37 -38 l-38 -34 34 38 c33 34 41 42 41 34z m-1487 -54 c-7 -50 -13 -55
-13 -11 0 29 6 48 16 48 1 0 0 -17 -3 -37z m-863 -8 c0 -5 -5 -3 -10 5 -5 8
-10 20 -10 25 0 6 5 3 10 -5 5 -8 10 -19 10 -25z m1257 -27 c-2 -13 -4 -3 -4
22 0 25 2 35 4 23 2 -13 2 -33 0 -45z m-920 30 c-3 -8 -6 -5 -6 6 -1 11 2 17
5 13 3 -3 4 -12 1 -19z m1470 -10 c-3 -7 -5 -2 -5 12 0 14 2 19 5 13 2 -7 2
-19 0 -25z m-3309 -25 c-2 -32 0 -38 18 -41 14 -2 25 6 34 25 l15 28 3 -38 c8
-89 -54 -192 -143 -236 -39 -19 -49 -21 -56 -10 -11 17 -11 29 1 107 10 76 40
137 83 175 42 36 49 34 45 -10z m3319 -25 c-3 -7 -5 -2 -5 12 0 14 2 19 5 13
2 -7 2 -19 0 -25z m396 25 c-7 -2 -19 -2 -25 0 -7 3 -2 5 12 5 14 0 19 -2 13
-5z m1316 -12 c10 -6 26 -29 36 -53 10 -24 20 -45 21 -47 2 -1 13 4 26 13 49
34 129 12 142 -39 9 -35 -9 -64 -49 -81 -70 -29 -146 -13 -183 38 -12 17 -15
16 -47 -18 -33 -35 -37 -36 -91 -32 -72 6 -116 45 -118 104 l-1 39 40 -1 c22
-1 49 -3 60 -5 14 -3 21 2 23 18 6 38 47 73 87 73 20 0 44 -4 54 -9z m-2242
-88 c-2 -16 -4 -5 -4 22 0 28 2 40 4 28 2 -13 2 -35 0 -50z m-440 -5 c-2 -13
-4 -5 -4 17 -1 22 1 32 4 23 2 -10 2 -28 0 -40z m980 30 c-3 -8 -6 -5 -6 6 -1
11 2 17 5 13 3 -3 4 -12 1 -19z m-1510 -40 c-3 -8 -6 -5 -6 6 -1 11 2 17 5 13
3 -3 4 -12 1 -19z m1520 -20 c-3 -7 -5 -2 -5 12 0 14 2 19 5 13 2 -7 2 -19 0
-25z m-3569 -24 c13 -36 11 -138 -2 -151 -3 -3 -21 5 -41 17 -38 23 -58 55
-70 108 -6 31 -5 32 24 32 20 0 34 7 41 21 16 28 33 19 48 -27z m2039 -16 c-3
-7 -5 -2 -5 12 0 14 2 19 5 13 2 -7 2 -19 0 -25z m550 -20 c-3 -7 -5 -2 -5 12
0 14 2 19 5 13 2 -7 2 -19 0 -25z m90 -60 c-2 -18 -4 -4 -4 32 0 36 2 50 4 33
2 -18 2 -48 0 -65z m230 -20 c-2 -24 -4 -7 -4 37 0 44 2 63 4 43 2 -21 2 -57
0 -80z m120 80 c-3 -7 -5 -2 -5 12 0 14 2 19 5 13 2 -7 2 -19 0 -25z m550 10
c-3 -8 -6 -5 -6 6 -1 11 2 17 5 13 3 -3 4 -12 1 -19z m-3884 1 c53 -14 113
-72 148 -141 l29 -58 -62 6 c-129 12 -216 43 -239 85 -10 20 -8 21 45 23 13 1
22 12 27 30 6 23 4 29 -11 33 -10 3 -21 11 -24 19 -7 17 32 19 87 3z m2874
-11 c-3 -8 -6 -5 -6 6 -1 11 2 17 5 13 3 -3 4 -12 1 -19z m-1267 -13 c13 -14
21 -25 18 -25 -2 0 -15 11 -28 25 -13 14 -21 25 -18 25 2 0 15 -11 28 -25z
m2341 -32 c13 -16 12 -17 -3 -4 -10 7 -18 15 -18 17 0 8 8 3 21 -13z m-3291
-28 c7 -18 17 -25 35 -25 15 0 25 6 25 14 0 7 6 19 14 25 36 30 22 -86 -19
-155 -22 -37 -132 -131 -142 -121 -2 2 -8 29 -14 61 -13 72 2 154 38 196 30
37 50 38 63 5z m1580 12 c0 -2 -12 -14 -27 -28 l-28 -24 24 28 c23 25 31 32
31 24z m1751 -24 c13 -16 12 -17 -3 -4 -10 7 -18 15 -18 17 0 8 8 3 21 -13z
m539 -18 c0 -2 -13 -11 -30 -20 -38 -19 -40 -11 -2 9 31 17 32 18 32 11z
m-2731 -31 c14 -12 -19 -1 -35 12 -18 14 -18 14 6 3 14 -6 27 -13 29 -15z
m388 -31 c-3 -10 -5 -2 -5 17 0 19 2 27 5 18 2 -10 2 -26 0 -35z m673 -8 c-11
-13 -49 -15 -249 -13 l-236 3 235 2 c136 2 239 8 244 13 16 16 20 12 6 -5z
m3404 -6 c32 -25 56 -69 56 -102 0 -23 3 -23 54 -19 48 4 57 1 80 -21 33 -33
33 -73 2 -119 l-23 -35 33 -27 c61 -48 35 -102 -45 -93 -81 9 -123 87 -92 170
9 22 6 26 -43 46 -67 27 -96 58 -103 108 -6 45 18 113 40 113 8 0 26 -9 41
-21z m-1897 5 c-3 -3 -12 -4 -19 -1 -8 3 -5 6 6 6 11 1 17 -2 13 -5z m-3901
-39 c17 -41 18 -124 3 -180 l-11 -40 -34 40 c-36 43 -84 134 -84 159 0 10 9
16 23 16 12 0 36 9 52 19 17 11 31 20 33 20 2 1 10 -15 18 -34z m3237 28 c-67
-2 -179 -2 -250 0 -70 1 -15 3 122 3 138 0 195 -2 128 -3z m624 1 c-3 -3 -12
-4 -19 -1 -8 3 -5 6 6 6 11 1 17 -2 13 -5z m-2340 -10 c-3 -3 -12 -4 -19 -1
-8 3 -5 6 6 6 11 1 17 -2 13 -5z m2300 0 c-3 -3 -12 -4 -19 -1 -8 3 -5 6 6 6
11 1 17 -2 13 -5z m-2250 -10 c-3 -3 -12 -4 -19 -1 -8 3 -5 6 6 6 11 1 17 -2
13 -5z m2196 -1 c-7 -2 -19 -2 -25 0 -7 3 -2 5 12 5 14 0 19 -2 13 -5z m-4048
-63 c46 -22 101 -76 134 -133 20 -33 21 -38 6 -43 -9 -4 -52 -4 -96 -1 -86 6
-162 35 -186 72 -11 19 -10 21 10 22 27 2 56 37 64 75 7 33 14 34 68 8z m2762
-142 c-3 -8 -6 -5 -6 6 -1 11 2 17 5 13 3 -3 4 -12 1 -19z m280 -25 c-3 -10
-5 -4 -5 12 0 17 2 24 5 18 2 -7 2 -21 0 -30z m-2617 -155 c199 -186 325 -224
589 -178 62 11 137 20 166 20 102 0 216 -49 310 -133 l40 -36 -82 -1 c-76 0
-87 3 -175 46 -131 63 -224 78 -379 63 -135 -13 -202 -4 -294 39 -104 49 -294
215 -282 246 4 9 9 16 13 16 3 0 46 -37 94 -82z m2253 -33 c37 -62 67 -116 67
-119 0 -3 -34 -6 -76 -6 l-76 0 -42 -47 c-254 -293 -584 -587 -899 -804 l-100
-69 -814 0 -813 0 0 100 0 100 161 0 162 0 -6 83 c-7 93 -34 179 -77 246 -34
53 -118 138 -173 175 l-39 25 29 8 c15 4 78 8 138 7 90 -1 125 -6 191 -27 224
-74 361 -237 393 -473 6 -41 11 -77 11 -80 0 -2 56 -4 125 -4 l125 0 0 45 c0
43 -2 45 -28 45 l-28 0 7 68 c8 78 16 116 36 155 24 48 84 107 135 133 94 48
147 56 411 61 l248 6 -3 41 c-3 40 -4 41 -46 46 l-43 5 40 81 c70 139 197 242
361 291 68 20 96 22 315 22 l240 0 68 -114z m1112 100 c191 -48 353 -184 409
-343 l15 -42 -39 0 c-34 0 -41 -4 -46 -24 -15 -62 -22 -60 246 -68 244 -6 301
-14 390 -52 102 -43 170 -134 189 -256 16 -100 15 -108 -16 -112 -25 -3 -28
-7 -31 -46 l-3 -43 128 3 128 3 7 67 c25 259 210 453 478 504 81 16 234 15
260 -1 6 -4 -16 -25 -47 -49 -80 -58 -138 -128 -178 -211 -37 -75 -59 -191
-49 -244 l7 -31 153 0 154 0 0 -100 0 -100 -817 0 -817 0 -125 84 c-319 213
-623 471 -853 723 l-112 123 -89 0 c-49 0 -87 4 -85 8 2 4 32 56 68 114 l65
107 275 1 c214 0 289 -3 335 -15z m-808 -72 c-3 -10 -5 -4 -5 12 0 17 2 24 5
18 2 -7 2 -21 0 -30z m-160 -291 l43 -74 -29 -37 c-53 -66 -56 -67 -76 -14
-10 27 -19 50 -21 52 -2 2 -51 -34 -109 -79 -59 -45 -109 -80 -111 -77 -3 3
20 91 42 156 3 10 -4 12 -33 7 l-38 -6 80 75 80 75 65 -2 64 -3 43 -73z m390
2 l78 -77 -41 7 -41 7 23 -82 c14 -45 23 -84 21 -86 -3 -3 -131 91 -204 149
-9 7 -19 -4 -36 -43 l-23 -52 -42 51 -42 50 32 54 c17 29 38 63 45 76 12 19
22 22 83 22 l69 0 78 -76z m-2096 -1503 c41 -41 41 -106 1 -153 -16 -18 -45
-64 -66 -102 -62 -115 -159 -239 -308 -394 -49 -52 -88 -96 -85 -98 7 -8 330
102 456 155 245 103 507 251 625 352 5 5 -5 21 -22 38 -43 40 -44 90 -3 132
48 48 121 35 147 -27 20 -47 12 -67 -53 -139 -30 -33 -70 -87 -88 -120 -44
-79 -84 -226 -92 -343 l-6 -93 51 20 c285 113 517 294 656 514 17 28 17 29 -8
52 -33 30 -41 66 -24 102 28 58 108 67 148 16 27 -35 25 -75 -7 -113 -14 -18
-47 -84 -73 -148 -26 -65 -80 -182 -119 -261 -40 -79 -70 -145 -68 -147 6 -7
145 53 216 93 103 57 199 132 291 229 78 81 182 223 212 288 6 14 14 26 18 26
3 0 28 -30 55 -67 64 -88 221 -245 310 -311 109 -80 243 -149 393 -202 28 -11
52 -15 52 -11 0 5 -16 35 -36 67 -51 85 -118 229 -154 330 -17 49 -41 97 -55
110 -33 31 -40 65 -20 103 29 57 105 64 145 14 27 -35 25 -75 -6 -112 l-26
-31 23 -37 c134 -221 323 -377 554 -455 131 -44 145 -46 145 -15 -1 135 -128
426 -230 524 -38 37 -45 49 -45 83 0 51 28 80 83 87 36 5 45 2 72 -25 18 -18
30 -41 30 -57 0 -30 -26 -85 -40 -85 -23 0 -6 -18 63 -67 236 -168 515 -304
832 -405 162 -52 195 -61 195 -52 0 4 -51 59 -112 123 -126 129 -221 245 -304
369 -31 45 -59 82 -64 82 -18 0 -41 70 -34 105 15 82 125 115 185 56 39 -39
43 -109 8 -147 -10 -11 -19 -24 -19 -30 0 -5 43 -40 96 -79 278 -205 608 -358
889 -413 121 -24 258 -37 254 -24 -2 6 -67 58 -144 117 -77 59 -178 140 -224
179 -45 39 -109 92 -141 118 -40 32 -60 57 -65 78 -17 76 33 140 110 140 97 0
141 -109 74 -184 l-30 -35 48 -31 c91 -58 368 -189 464 -220 258 -82 436 -91
1252 -64 l197 7 0 -81 c0 -54 -10 -122 -30 -209 -329 -1413 -1543 -2603 -3140
-3077 -310 -93 -653 -161 -984 -198 -174 -19 -255 -22 -596 -23 -342 0 -422 3
-596 22 -234 26 -524 78 -744 133 -1401 349 -2538 1220 -3099 2375 -168 345
-301 774 -301 972 l0 88 528 0 c571 1 656 6 900 61 204 46 386 131 494 232
l27 25 -24 29 c-37 44 -35 110 4 149 64 63 176 24 187 -66 7 -50 -26 -103 -73
-119 -22 -7 -44 -28 -67 -62 -75 -111 -202 -227 -374 -343 -35 -24 -62 -44
-60 -46 6 -6 170 25 288 55 374 95 663 244 933 480 5 4 -3 24 -17 45 -30 43
-32 74 -10 120 18 39 45 53 102 54 35 1 49 -5 73 -28z m-3094 -168 c-2 -16 -4
-3 -4 27 0 30 2 43 4 28 2 -16 2 -40 0 -55z m0 -475 c-1 -79 -3 -15 -3 142 0
157 2 221 3 143 2 -79 2 -207 0 -285z m11343 409 c0 -2 -10 -12 -22 -23 l-23
-19 19 23 c18 21 26 27 26 19z m-130 -131 c0 -2 -8 -10 -17 -17 -16 -13 -17
-12 -4 4 13 16 21 21 21 13z m-12783 -78 c-3 -8 -6 -5 -6 6 -1 11 2 17 5 13 3
-3 4 -12 1 -19z m12990 -20 c-3 -8 -6 -5 -6 6 -1 11 2 17 5 13 3 -3 4 -12 1
-19z m-12980 -40 c-3 -7 -5 -2 -5 12 0 14 2 19 5 13 2 -7 2 -19 0 -25z m12970
-10 c-3 -8 -6 -5 -6 6 -1 11 2 17 5 13 3 -3 4 -12 1 -19z m-12960 -60 c-3 -7
-5 -2 -5 12 0 14 2 19 5 13 2 -7 2 -19 0 -25z m12950 0 c-3 -7 -5 -2 -5 12 0
14 2 19 5 13 2 -7 2 -19 0 -25z m523 -1 c0 -1 -28 -29 -62 -62 l-63 -60 60 63
c55 58 65 67 65 59z m285 -37 c-9 -16 -18 -30 -21 -30 -2 0 2 14 11 30 9 17
18 30 21 30 2 0 -2 -13 -11 -30z m-12198 -212 c-3 -8 -6 -5 -6 6 -1 11 2 17 5
13 3 -3 4 -12 1 -19z m9830 0 c-3 -8 -6 -5 -6 6 -1 11 2 17 5 13 3 -3 4 -12 1
-19z m-11390 -130 c-3 -7 -5 -2 -5 12 0 14 2 19 5 13 2 -7 2 -19 0 -25z
m12470 0 c-3 -8 -6 -5 -6 6 -1 11 2 17 5 13 3 -3 4 -12 1 -19z m-10880 -10
c-3 -8 -6 -5 -6 6 -1 11 2 17 5 13 3 -3 4 -12 1 -19z m-1100 -10 c-3 -8 -6 -5
-6 6 -1 11 2 17 5 13 3 -3 4 -12 1 -19z m11970 -20 c-3 -8 -6 -5 -6 6 -1 11 2
17 5 13 3 -3 4 -12 1 -19z m-11960 -30 c-3 -7 -5 -2 -5 12 0 14 2 19 5 13 2
-7 2 -19 0 -25z m11950 -10 c-3 -8 -6 -5 -6 6 -1 11 2 17 5 13 3 -3 4 -12 1
-19z m530 6 c-3 -3 -12 -4 -19 -1 -8 3 -5 6 6 6 11 1 17 -2 13 -5z m56 -11
c-7 -2 -19 -2 -25 0 -7 3 -2 5 12 5 14 0 19 -2 13 -5z m54 -9 c-3 -3 -12 -4
-19 -1 -8 3 -5 6 6 6 11 1 17 -2 13 -5z m-12580 -26 c-3 -8 -6 -5 -6 6 -1 11
2 17 5 13 3 -3 4 -12 1 -19z m11930 -20 c-3 -8 -6 -5 -6 6 -1 11 2 17 5 13 3
-3 4 -12 1 -19z m-13070 -20 c-3 -8 -6 -5 -6 6 -1 11 2 17 5 13 3 -3 4 -12 1
-19z m10 -40 c-3 -8 -6 -5 -6 6 -1 11 2 17 5 13 3 -3 4 -12 1 -19z m12513 19
c0 -2 -10 -12 -22 -23 l-23 -19 19 23 c18 21 26 27 26 19z m-11013 -13 c-3 -3
-12 -4 -19 -1 -8 3 -5 6 6 6 11 1 17 -2 13 -5z m80 0 c-3 -3 -12 -4 -19 -1 -8
3 -5 6 6 6 11 1 17 -2 13 -5z m53 -14 c8 -5 11 -10 5 -10 -5 0 -17 5 -25 10
-8 5 -10 10 -5 10 6 0 17 -5 25 -10z m11120 -35 c13 -14 21 -25 18 -25 -2 0
-15 11 -28 25 -13 14 -21 25 -18 25 2 0 15 -11 28 -25z m-12743 -7 c-3 -8 -6
-5 -6 6 -1 11 2 17 5 13 3 -3 4 -12 1 -19z m11894 -15 c-12 -20 -14 -14 -5 12
4 9 9 14 11 11 3 -2 0 -13 -6 -23z m2276 -5 c-3 -8 -6 -5 -6 6 -1 11 2 17 5
13 3 -3 4 -12 1 -19z m-12827 9 c0 -2 -12 -14 -27 -28 l-28 -24 24 28 c23 25
31 32 31 24z m409 -41 c-3 -3 -11 5 -18 17 -13 21 -12 21 5 5 10 -10 16 -20
13 -22z m-1742 2 c-3 -8 -6 -5 -6 6 -1 11 2 17 5 13 3 -3 4 -12 1 -19z m1093
19 c0 -1 -26 -27 -57 -57 l-58 -55 55 58 c50 53 60 62 60 54z m1010 -52 c0 -5
-5 -3 -10 5 -5 8 -10 20 -10 25 0 6 5 3 10 -5 5 -8 10 -19 10 -25z m9951 8
c-12 -20 -14 -14 -5 12 4 9 9 14 11 11 3 -2 0 -13 -6 -23z m740 10 c13 -16 12
-17 -3 -4 -10 7 -18 15 -18 17 0 8 8 3 21 -13z m1356 -5 c-3 -8 -6 -5 -6 6 -1
11 2 17 5 13 3 -3 4 -12 1 -19z m-1107 -13 c13 -14 21 -25 18 -25 -2 0 -15 11
-28 25 -13 14 -21 25 -18 25 2 0 15 -11 28 -25z m-13033 -17 c-3 -8 -6 -5 -6
6 -1 11 2 17 5 13 3 -3 4 -12 1 -19z m14130 -20 c-3 -8 -6 -5 -6 6 -1 11 2 17
5 13 3 -3 4 -12 1 -19z m-12907 -11 c0 -1 -37 -38 -82 -82 l-83 -80 80 83 c74
76 85 87 85 79z m11685 -67 c21 -22 37 -40 34 -40 -3 0 -23 18 -44 40 -21 22
-37 40 -34 40 3 0 23 -18 44 -40z m-10736 -65 c0 -5 -11 10 -24 35 -13 25 -24
50 -24 55 0 6 11 -10 24 -35 13 -25 24 -49 24 -55z m9807 38 c-14 -26 -25 -45
-26 -41 0 12 43 98 48 94 2 -2 -8 -26 -22 -53z m1189 17 c21 -22 37 -40 34
-40 -3 0 -23 18 -44 40 -21 22 -37 40 -34 40 3 0 23 -18 44 -40z m-10835 -5
c0 -5 -5 -3 -10 5 -5 8 -10 20 -10 25 0 6 5 3 10 -5 5 -8 10 -19 10 -25z
m-2313 -77 c-3 -7 -5 -2 -5 12 0 14 2 19 5 13 2 -7 2 -19 0 -25z m14090 0 c-3
-8 -6 -5 -6 6 -1 11 2 17 5 13 3 -3 4 -12 1 -19z m-13377 -83 c-41 -41 -77
-75 -79 -75 -3 0 28 34 69 75 41 41 77 75 79 75 3 0 -28 -34 -69 -75z m12325
35 c21 -22 37 -40 34 -40 -3 0 -23 18 -44 40 -21 22 -37 40 -34 40 3 0 23 -18
44 -40z m-10850 0 c9 -16 13 -30 11 -30 -3 0 -12 14 -21 30 -9 17 -13 30 -11
30 3 0 12 -13 21 -30z m9720 0 c-9 -16 -18 -30 -21 -30 -2 0 2 14 11 30 9 17
18 30 21 30 2 0 -2 -13 -11 -30z m1385 -5 c19 -19 32 -35 29 -35 -3 0 -20 16
-39 35 -19 19 -32 35 -29 35 3 0 20 -16 39 -35z m-13283 -32 c-3 -10 -5 -2 -5
17 0 19 2 27 5 18 2 -10 2 -26 0 -35z m14070 0 c-3 -10 -5 -2 -5 17 0 19 2 27
5 18 2 -10 2 -26 0 -35z m-10 -90 c-3 -10 -5 -2 -5 17 0 19 2 27 5 18 2 -10 2
-26 0 -35z m-14050 -15 c-2 -13 -4 -5 -4 17 -1 22 1 32 4 23 2 -10 2 -28 0
-40z m873 49 c0 -1 -37 -38 -82 -82 l-83 -80 80 83 c74 76 85 87 85 79z
m12290 -42 c19 -19 32 -35 29 -35 -3 0 -20 16 -39 35 -19 19 -32 35 -29 35 3
0 20 -16 39 -35z m877 -117 c-2 -13 -4 -3 -4 22 0 25 2 35 4 23 2 -13 2 -33 0
-45z m-14030 -25 c-2 -16 -4 -3 -4 27 0 30 2 43 4 28 2 -16 2 -40 0 -55z
m12716 30 c-13 -2 -33 -2 -45 0 -13 2 -3 4 22 4 25 0 35 -2 23 -4z m583 -25
l29 -33 -32 29 c-31 28 -38 36 -30 36 2 0 16 -15 33 -32z m-471 -28 c10 -11
16 -20 13 -20 -3 0 -13 9 -23 20 -10 11 -16 20 -13 20 3 0 13 -9 23 -20z m786
-37 c13 -16 12 -17 -3 -4 -10 7 -18 15 -18 17 0 8 8 3 21 -13z m406 -60 c-2
-16 -4 -5 -4 22 0 28 2 40 4 28 2 -13 2 -35 0 -50z m-12714 30 c-13 -2 -35 -2
-50 0 -16 2 -5 4 22 4 28 0 40 -2 28 -4z m-1296 -80 c-2 -16 -4 -3 -4 27 0 30
2 43 4 28 2 -16 2 -40 0 -55z m1151 70 c-16 -2 -40 -2 -55 0 -16 2 -3 4 27 4
30 0 43 -2 28 -4z m490 -18 c-3 -3 -9 2 -12 12 -6 14 -5 15 5 6 7 -7 10 -15 7
-18z m11219 -27 c-2 -13 -4 -5 -4 17 -1 22 1 32 4 23 2 -10 2 -28 0 -40z
m-11834 35 c-7 -2 -19 -2 -25 0 -7 3 -2 5 12 5 14 0 19 -2 13 -5z m11482 -23
c-9 -16 -18 -30 -21 -30 -2 0 2 14 11 30 9 17 18 30 21 30 2 0 -2 -13 -11 -30z
m188 23 c-7 -2 -19 -2 -25 0 -7 3 -2 5 12 5 14 0 19 -2 13 -5z m38 -20 c13
-16 12 -17 -3 -4 -10 7 -18 15 -18 17 0 8 8 3 21 -13z m416 11 c-3 -3 -12 -4
-19 -1 -8 3 -5 6 6 6 11 1 17 -2 13 -5z m293 -19 c13 -14 21 -25 18 -25 -2 0
-15 11 -28 25 -13 14 -21 25 -18 25 2 0 15 -11 28 -25z m-357 8 c-7 -2 -21 -2
-30 0 -10 3 -4 5 12 5 17 0 24 -2 18 -5z m-66 -9 c-3 -3 -12 -4 -19 -1 -8 3
-5 6 6 6 11 1 17 -2 13 -5z m-117 -18 c0 -2 -7 -7 -16 -10 -8 -3 -12 -2 -9 4
6 10 25 14 25 6z m-299 -49 c-10 -9 -11 -8 -5 6 3 10 9 15 12 12 3 -3 0 -11
-7 -18z m-12011 -32 c0 -5 -5 -3 -10 5 -5 8 -10 20 -10 25 0 6 5 3 10 -5 5 -8
10 -19 10 -25z m878 28 c-10 -2 -26 -2 -35 0 -10 3 -2 5 17 5 19 0 27 -2 18
-5z m192 4 c0 -2 -12 -14 -27 -28 l-28 -24 24 28 c23 25 31 32 31 24z m-297
-14 c-7 -2 -21 -2 -30 0 -10 3 -4 5 12 5 17 0 24 -2 18 -5z m11087 -33 c-11
-22 -23 -40 -25 -40 -3 0 4 18 15 40 11 22 23 40 25 40 3 0 -4 -18 -15 -40z
m-11362 13 c-10 -2 -26 -2 -35 0 -10 3 -2 5 17 5 19 0 27 -2 18 -5z m-668 -48
c0 -5 -5 -3 -10 5 -5 8 -10 20 -10 25 0 6 5 3 10 -5 5 -8 10 -19 10 -25z
m13577 -12 c-3 -10 -5 -2 -5 17 0 19 2 27 5 18 2 -10 2 -26 0 -35z m-910 31
c-3 -3 -12 -4 -19 -1 -8 3 -5 6 6 6 11 1 17 -2 13 -5z m-13000 -26 c-3 -8 -6
-5 -6 6 -1 11 2 17 5 13 3 -3 4 -12 1 -19z m12940 16 c-3 -3 -12 -4 -19 -1 -8
3 -5 6 6 6 11 1 17 -2 13 -5z m-412 -32 c-3 -3 -11 0 -18 7 -9 10 -8 11 6 5
10 -3 15 -9 12 -12z m-12608 -39 c-3 -10 -5 -2 -5 17 0 19 2 27 5 18 2 -10 2
-26 0 -35z m1523 4 c0 -2 -17 -19 -37 -38 l-38 -34 34 38 c33 34 41 42 41 34z
m12387 -59 c-2 -13 -4 -3 -4 22 0 25 2 35 4 23 2 -13 2 -33 0 -45z m-1457 22
c22 -11 40 -23 40 -25 0 -5 -79 32 -89 41 -11 10 14 2 49 -16z m-12373 -12
c-3 -8 -6 -5 -6 6 -1 11 2 17 5 13 3 -3 4 -12 1 -19z m12849 -66 c-5 -4 -86
36 -86 43 0 3 20 -5 45 -17 24 -12 43 -23 41 -26z m-11706 -7 c-24 -25 -46
-45 -49 -45 -3 0 15 20 39 45 24 25 46 45 49 45 3 0 -15 -20 -39 -45z m11370
20 c17 -9 30 -18 30 -21 0 -4 -59 23 -69 32 -10 9 13 3 39 -11z m-12164 -77
l29 -33 -32 29 c-31 28 -38 36 -30 36 2 0 16 -15 33 -32z m12319 2 c3 -6 -1
-7 -9 -4 -18 7 -21 14 -7 14 6 0 13 -4 16 -10z m-1535 -4 c0 -2 -8 -10 -17
-17 -16 -13 -17 -12 -4 4 13 16 21 21 21 13z m-9880 -19 c0 -2 -17 -19 -37
-38 l-38 -34 34 38 c33 34 41 42 41 34z m-780 -37 c6 -11 8 -20 6 -20 -3 0
-10 9 -16 20 -6 11 -8 20 -6 20 3 0 10 -9 16 -20z m12121 3 c13 -16 12 -17 -3
-4 -10 7 -18 15 -18 17 0 8 8 3 21 -13z m1159 4 c0 -2 -10 -12 -22 -23 l-23
-19 19 23 c18 21 26 27 26 19z m-13320 -71 c0 -12 -5 -7 -19 24 -11 24 -11 24
3 6 9 -11 16 -24 16 -30z m2341 27 c13 -16 12 -17 -3 -4 -17 13 -22 21 -14 21
2 0 10 -8 17 -17z m8299 13 c0 -2 -8 -10 -17 -17 -16 -13 -17 -12 -4 4 13 16
21 21 21 13z m-10859 -33 c13 -16 12 -17 -3 -4 -10 7 -18 15 -18 17 0 8 8 3
21 -13z m1386 11 c-3 -3 -12 -4 -19 -1 -8 3 -5 6 6 6 11 1 17 -2 13 -5z m1034
-11 c13 -16 12 -17 -3 -4 -17 13 -22 21 -14 21 2 0 10 -8 17 -17z m8579 13 c0
-2 -8 -10 -17 -17 -16 -13 -17 -12 -4 4 13 16 21 21 21 13z m1461 -13 c13 -16
12 -17 -3 -4 -10 7 -18 15 -18 17 0 8 8 3 21 -13z m-12734 -15 c-3 -8 -6 -5
-6 6 -1 11 2 17 5 13 3 -3 4 -12 1 -19z m1700 16 c-3 -3 -12 -4 -19 -1 -8 3
-5 6 6 6 11 1 17 -2 13 -5z m12250 -26 c-3 -7 -5 -2 -5 12 0 14 2 19 5 13 2
-7 2 -19 0 -25z m-12210 16 c-3 -3 -12 -4 -19 -1 -8 3 -5 6 6 6 11 1 17 -2 13
-5z m50 -10 c-3 -3 -12 -4 -19 -1 -8 3 -5 6 6 6 11 1 17 -2 13 -5z m9303 2 c0
-2 -8 -10 -17 -17 -16 -13 -17 -12 -4 4 13 16 21 21 21 13z m-11083 -58 c-3
-8 -6 -5 -6 6 -1 11 2 17 5 13 3 -3 4 -12 1 -19z m2894 5 c13 -16 12 -17 -3
-4 -17 13 -22 21 -14 21 2 0 10 -8 17 -17z m8149 3 c0 -2 -8 -10 -17 -17 -16
-13 -17 -12 -4 4 13 16 21 21 21 13z m2887 -28 c-3 -7 -5 -2 -5 12 0 14 2 19
5 13 2 -7 2 -19 0 -25z m-12460 16 c-3 -3 -12 -4 -19 -1 -8 3 -5 6 6 6 11 1
17 -2 13 -5z m11300 -26 c-3 -7 -5 -2 -5 12 0 14 2 19 5 13 2 -7 2 -19 0 -25z
m-10006 5 c13 -16 12 -17 -3 -4 -17 13 -22 21 -14 21 2 0 10 -8 17 -17z m8419
13 c0 -2 -8 -10 -17 -17 -16 -13 -17 -12 -4 4 13 16 21 21 21 13z m-11173 -38
c-3 -8 -6 -5 -6 6 -1 11 2 17 5 13 3 -3 4 -12 1 -19z m310 0 c-3 -8 -6 -5 -6
6 -1 11 2 17 5 13 3 -3 4 -12 1 -19z m195 -34 c2 -19 1 -37 -2 -39 -3 -2 -7
14 -8 36 -3 49 4 52 10 3z m2439 19 c13 -16 12 -17 -3 -4 -17 13 -22 21 -14
21 2 0 10 -8 17 -17z m8039 14 c0 -2 -10 -12 -22 -23 l-23 -19 19 23 c18 21
26 27 26 19z m2927 -19 c-3 -8 -6 -5 -6 6 -1 11 2 17 5 13 3 -3 4 -12 1 -19z
m-12187 8 c0 -2 -11 -6 -25 -8 -13 -3 -22 -1 -19 3 5 9 44 13 44 5z m9840 0
c0 -2 -8 -10 -17 -17 -16 -13 -17 -12 -4 4 13 16 21 21 21 13z m1197 -18 c-3
-8 -6 -5 -6 6 -1 11 2 17 5 13 3 -3 4 -12 1 -19z m-11000 6 c-3 -3 -12 -4 -19
-1 -8 3 -5 6 6 6 11 1 17 -2 13 -5z m1044 -11 c13 -16 12 -17 -3 -4 -17 13
-22 21 -14 21 2 0 10 -8 17 -17z m8319 13 c0 -2 -8 -10 -17 -17 -16 -13 -17
-12 -4 4 13 16 21 21 21 13z m-9323 -12 c-3 -3 -12 -4 -19 -1 -8 3 -5 6 6 6
11 1 17 -2 13 -5z m12100 -26 c-3 -8 -6 -5 -6 6 -1 11 2 17 5 13 3 -3 4 -12 1
-19z m-310 -65 c-2 -16 -4 -3 -4 27 0 30 2 43 4 28 2 -16 2 -40 0 -55z m-1516
50 c13 -17 13 -17 -6 -3 -11 8 -22 16 -24 17 -2 2 0 3 6 3 6 0 17 -8 24 -17z
m-10094 1 c-3 -3 -12 -4 -19 -1 -8 3 -5 6 6 6 11 1 17 -2 13 -5z m1043 -29
c13 -14 21 -25 18 -25 -2 0 -15 11 -28 25 -13 14 -21 25 -18 25 2 0 15 -11 28
-25z m-2713 -17 c-3 -7 -5 -2 -5 12 0 14 2 19 5 13 2 -7 2 -19 0 -25z m12293
28 c0 -2 -8 -10 -17 -17 -16 -13 -17 -12 -4 4 13 16 21 21 21 13z m-9725 -26
c10 -11 16 -20 13 -20 -3 0 -13 9 -23 20 -10 11 -16 20 -13 20 3 0 13 -9 23
-20z m8015 17 c0 -2 -12 -14 -27 -28 l-28 -24 24 28 c23 25 31 32 31 24z m160
0 c0 -2 -10 -12 -22 -23 l-23 -19 19 23 c18 21 26 27 26 19z m1101 -34 c13
-16 12 -17 -3 -4 -10 7 -18 15 -18 17 0 8 8 3 21 -13z m-711 -27 c0 -2 -8 -10
-17 -17 -16 -13 -17 -12 -4 4 13 16 21 21 21 13z m1250 -10 c0 -2 -8 -10 -17
-17 -16 -13 -17 -12 -4 4 13 16 21 21 21 13z m907 -18 c-3 -8 -6 -5 -6 6 -1
11 2 17 5 13 3 -3 4 -12 1 -19z m-13409 -5 c-10 -2 -28 -2 -40 0 -13 2 -5 4
17 4 22 1 32 -1 23 -4z m1632 3 c0 -2 -8 -10 -17 -17 -16 -13 -17 -12 -4 4 13
16 21 21 21 13z m691 -13 c13 -16 12 -17 -3 -4 -17 13 -22 21 -14 21 2 0 10
-8 17 -17z m-926 -23 c-9 -16 -18 -30 -21 -30 -2 0 2 14 11 30 9 17 18 30 21
30 2 0 -2 -13 -11 -30z m1605 -57 l75 -78 -77 75 c-43 41 -78 76 -78 77 0 8
11 -3 80 -74z m9210 51 c0 -2 -9 0 -20 6 -11 6 -20 13 -20 16 0 2 9 0 20 -6
11 -6 20 -13 20 -16z m-1010 12 c0 -2 -8 -10 -17 -17 -16 -13 -17 -12 -4 4 13
16 21 21 21 13z m-8320 -101 c52 -52 92 -95 90 -95 -3 0 -48 43 -100 95 -52
52 -92 95 -90 95 3 0 48 -43 100 -95z m7860 92 c0 -1 -44 -45 -97 -97 l-98
-95 95 98 c88 90 100 102 100 94z m-8369 -34 c13 -16 12 -17 -3 -4 -17 13 -22
21 -14 21 2 0 10 -8 17 -17z m-611 3 c0 -2 -8 -10 -17 -17 -16 -13 -17 -12 -4
4 13 16 21 21 21 13z m10191 -23 c13 -16 12 -17 -3 -4 -10 7 -18 15 -18 17 0
8 8 3 21 -13z m386 11 c-3 -3 -12 -4 -19 -1 -8 3 -5 6 6 6 11 1 17 -2 13 -5z
m-526 -21 c13 -16 12 -17 -3 -4 -10 7 -18 15 -18 17 0 8 8 3 21 -13z m-671 4
c0 -2 -10 -12 -22 -23 l-23 -19 19 23 c18 21 26 27 26 19z m-9650 -10 c0 -2
-10 -12 -22 -23 l-23 -19 19 23 c18 21 26 27 26 19z m10511 -24 c9 -9 7 -11
-5 -9 -9 1 -21 7 -27 13 -9 9 -7 11 5 9 9 -1 21 -7 27 -13z m-10321 3 c0 -2
-8 -10 -17 -17 -16 -13 -17 -12 -4 4 13 16 21 21 21 13z m760 -21 c13 -14 21
-25 18 -25 -2 0 -15 11 -28 25 -13 14 -21 25 -18 25 2 0 15 -11 28 -25z m-440
1 c0 -2 -8 -10 -17 -17 -16 -13 -17 -12 -4 4 13 16 21 21 21 13z m10041 -13
c13 -16 12 -17 -3 -4 -10 7 -18 15 -18 17 0 8 8 3 21 -13z m-9990 -10 c13 -16
12 -17 -3 -4 -10 7 -18 15 -18 17 0 8 8 3 21 -13z m-623 -18 c-6 -14 -13 -23
-15 -21 -5 5 15 46 22 46 3 0 -1 -11 -7 -25z m10593 8 c13 -16 12 -17 -3 -4
-10 7 -18 15 -18 17 0 8 8 3 21 -13z m-140 -10 c13 -16 12 -17 -3 -4 -10 7
-18 15 -18 17 0 8 8 3 21 -13z m-1471 -6 c0 -2 -12 -14 -27 -28 l-28 -24 24
28 c23 25 31 32 31 24z m640 -1 c0 -2 -8 -10 -17 -17 -16 -13 -17 -12 -4 4 13
16 21 21 21 13z m670 -6 c8 -5 11 -10 5 -10 -5 0 -17 5 -25 10 -8 5 -10 10 -5
10 6 0 17 -5 25 -10z m-10140 -4 c0 -2 -8 -10 -17 -17 -16 -13 -17 -12 -4 4
13 16 21 21 21 13z m1585 -36 c10 -11 16 -20 13 -20 -3 0 -13 9 -23 20 -10 11
-16 20 -13 20 3 0 13 -9 23 -20z m-1758 -22 c-3 -7 -5 -2 -5 12 0 14 2 19 5
13 2 -7 2 -19 0 -25z m10163 18 c0 -2 -8 -10 -17 -17 -16 -13 -17 -12 -4 4 13
16 21 21 21 13z m-9730 -20 c0 -2 -8 -10 -17 -17 -16 -13 -17 -12 -4 4 13 16
21 21 21 13z m721 -13 c13 -16 12 -17 -3 -4 -17 13 -22 21 -14 21 2 0 10 -8
17 -17z m9329 7 c8 -5 11 -10 5 -10 -5 0 -17 5 -25 10 -8 5 -10 10 -5 10 6 0
17 -5 25 -10z m311 -7 c13 -16 12 -17 -3 -4 -17 13 -22 21 -14 21 2 0 10 -8
17 -17z m99 13 c0 -2 -8 -10 -17 -17 -16 -13 -17 -12 -4 4 13 16 21 21 21 13z
m-9210 -61 c13 -14 21 -25 18 -25 -2 0 -15 11 -28 25 -13 14 -21 25 -18 25 2
0 15 -11 28 -25z m7200 21 c0 -2 -8 -10 -17 -17 -16 -13 -17 -12 -4 4 13 16
21 21 21 13z m170 1 c0 -2 -12 -14 -27 -28 l-28 -24 24 28 c23 25 31 32 31 24z
m-7195 -27 c10 -11 16 -20 13 -20 -3 0 -13 9 -23 20 -10 11 -16 20 -13 20 3 0
13 -9 23 -20z m-1505 6 c0 -2 -8 -10 -17 -17 -16 -13 -17 -12 -4 4 13 16 21
21 21 13z m10391 -13 c13 -16 12 -17 -3 -4 -10 7 -18 15 -18 17 0 8 8 3 21
-13z m-9946 -13 c10 -11 16 -20 13 -20 -3 0 -13 9 -23 20 -10 11 -16 20 -13
20 3 0 13 -9 23 -20z m9570 -8 c-3 -3 -11 0 -18 7 -9 10 -8 11 6 5 10 -3 15
-9 12 -12z m-9735 -15 c0 -2 -10 -12 -22 -23 l-23 -19 19 23 c18 21 26 27 26
19z m1291 -14 c13 -16 12 -17 -3 -4 -17 13 -22 21 -14 21 2 0 10 -8 17 -17z
m-1668 0 c-7 -2 -21 -2 -30 0 -10 3 -4 5 12 5 17 0 24 -2 18 -5z m1512 -13
c10 -11 16 -20 13 -20 -3 0 -13 9 -23 20 -10 11 -16 20 -13 20 3 0 13 -9 23
-20z m-484 -7 c13 -16 12 -17 -3 -4 -17 13 -22 21 -14 21 2 0 10 -8 17 -17z
m7669 13 c0 -2 -8 -10 -17 -17 -16 -13 -17 -12 -4 4 13 16 21 21 21 13z m1157
-58 c-2 -13 -4 -3 -4 22 0 25 2 35 4 23 2 -13 2 -33 0 -45z m-1347 48 c0 -2
-8 -10 -17 -17 -16 -13 -17 -12 -4 4 13 16 21 21 21 13z m1471 -13 c13 -16 12
-17 -3 -4 -10 7 -18 15 -18 17 0 8 8 3 21 -13z m-8260 -10 c13 -16 12 -17 -3
-4 -17 13 -22 21 -14 21 2 0 10 -8 17 -17z m8559 7 c8 -5 11 -10 5 -10 -5 0
-17 5 -25 10 -8 5 -10 10 -5 10 6 0 17 -5 25 -10z m-9640 -35 c13 -14 21 -25
18 -25 -2 0 -15 11 -28 25 -13 14 -21 25 -18 25 2 0 15 -11 28 -25z m941 -2
c13 -16 12 -17 -3 -4 -17 13 -22 21 -14 21 2 0 10 -8 17 -17z m7059 13 c0 -2
-8 -10 -17 -17 -16 -13 -17 -12 -4 4 13 16 21 21 21 13z m-8350 -9 c0 -2 -12
-14 -27 -28 l-28 -24 24 28 c23 25 31 32 31 24z m190 -10 c0 -2 -10 -12 -22
-23 l-23 -19 19 23 c18 21 26 27 26 19z m9920 -7 c8 -5 11 -10 5 -10 -5 0 -17
5 -25 10 -8 5 -10 10 -5 10 6 0 17 -5 25 -10z m-1980 -4 c0 -2 -8 -10 -17 -17
-16 -13 -17 -12 -4 4 13 16 21 21 21 13z m-7889 -33 c13 -16 12 -17 -3 -4 -17
13 -22 21 -14 21 2 0 10 -8 17 -17z m170 -20 c13 -16 12 -17 -3 -4 -17 13 -22
21 -14 21 2 0 10 -8 17 -17z m1150 0 c13 -16 12 -17 -3 -4 -17 13 -22 21 -14
21 2 0 10 -8 17 -17z m-1838 0 c-7 -2 -21 -2 -30 0 -10 3 -4 5 12 5 17 0 24
-2 18 -5z m10128 -10 c13 -16 12 -17 -3 -4 -10 7 -18 15 -18 17 0 8 8 3 21
-13z m-8956 -13 c10 -11 16 -20 13 -20 -3 0 -13 9 -23 20 -10 11 -16 20 -13
20 3 0 13 -9 23 -20z m-995 7 c0 -2 -12 -14 -27 -28 l-28 -24 24 28 c23 25 31
32 31 24z m9677 -44 c-3 -10 -5 -2 -5 17 0 19 2 27 5 18 2 -10 2 -26 0 -35z
m-10406 10 c13 -16 12 -17 -3 -4 -10 7 -18 15 -18 17 0 8 8 3 21 -13z m985
-25 l29 -33 -32 29 c-31 28 -38 36 -30 36 2 0 16 -15 33 -32z m8554 29 c0 -2
-10 -12 -22 -23 l-23 -19 19 23 c18 21 26 27 26 19z m1221 -24 c13 -16 12 -17
-3 -4 -10 7 -18 15 -18 17 0 8 8 3 21 -13z m-8450 -10 c13 -16 12 -17 -3 -4
-10 7 -18 15 -18 17 0 8 8 3 21 -13z m190 0 c13 -16 12 -17 -3 -4 -10 7 -18
15 -18 17 0 8 8 3 21 -13z m6489 13 c0 -2 -8 -10 -17 -17 -16 -13 -17 -12 -4
4 13 16 21 21 21 13z m1287 -53 c-3 -10 -5 -2 -5 17 0 19 2 27 5 18 2 -10 2
-26 0 -35z m-8466 20 c13 -16 12 -17 -3 -4 -17 13 -22 21 -14 21 2 0 10 -8 17
-17z m8289 13 c0 -2 -8 -10 -17 -17 -16 -13 -17 -12 -4 4 13 16 21 21 21 13z
m-9460 -9 c0 -2 -12 -14 -27 -28 l-28 -24 24 28 c23 25 31 32 31 24z m190 -10
c0 -2 -12 -14 -27 -28 l-28 -24 24 28 c23 25 31 32 31 24z m8640 0 c0 -2 -10
-12 -22 -23 l-23 -19 19 23 c18 21 26 27 26 19z m705 -17 c10 -11 16 -20 13
-20 -3 0 -13 9 -23 20 -10 11 -16 20 -13 20 3 0 13 -9 23 -20z m342 14 c-3 -3
-12 -4 -19 -1 -8 3 -5 6 6 6 11 1 17 -2 13 -5z m383 2 c0 -2 -8 -10 -17 -17
-16 -13 -17 -12 -4 4 13 16 21 21 21 13z m-317 -13 c-7 -2 -21 -2 -30 0 -10 3
-4 5 12 5 17 0 24 -2 18 -5z m258 -10 c13 -16 12 -17 -3 -4 -10 7 -18 15 -18
17 0 8 8 3 21 -13z m-9790 -10 c13 -16 12 -17 -3 -4 -10 7 -18 15 -18 17 0 8
8 3 21 -13z m1340 0 c13 -16 12 -17 -3 -4 -10 7 -18 15 -18 17 0 8 8 3 21 -13z
m6319 13 c0 -2 -8 -10 -17 -17 -16 -13 -17 -12 -4 4 13 16 21 21 21 13z m200
0 c0 -2 -8 -10 -17 -17 -16 -13 -17 -12 -4 4 13 16 21 21 21 13z m1723 -3 c-7
-2 -19 -2 -25 0 -7 3 -2 5 12 5 14 0 19 -2 13 -5z m-8762 -20 c13 -16 12 -17
-3 -4 -10 7 -18 15 -18 17 0 8 8 3 21 -13z m8822 10 c-7 -2 -19 -2 -25 0 -7 3
-2 5 12 5 14 0 19 -2 13 -5z m54 -9 c-3 -3 -12 -4 -19 -1 -8 3 -5 6 6 6 11 1
17 -2 13 -5z m-1337 -8 c0 -2 -8 -10 -17 -17 -16 -13 -17 -12 -4 4 13 16 21
21 21 13z m877 -63 c-3 -10 -5 -2 -5 17 0 19 2 27 5 18 2 -10 2 -26 0 -35z
m-8356 20 c13 -16 12 -17 -3 -4 -10 7 -18 15 -18 17 0 8 8 3 21 -13z m8879 14
c0 -2 -10 -12 -22 -23 l-23 -19 19 23 c18 21 26 27 26 19z m-730 -32 c13 -14
21 -25 18 -25 -2 0 -15 11 -28 25 -13 14 -21 25 -18 25 2 0 15 -11 28 -25z
m-9360 12 c0 -2 -10 -12 -22 -23 l-23 -19 19 23 c18 21 26 27 26 19z m167 -19
c-3 -8 -6 -5 -6 6 -1 11 2 17 5 13 3 -3 4 -12 1 -19z m363 18 c0 -2 -8 -10
-17 -17 -16 -13 -17 -12 -4 4 13 16 21 21 21 13z m9317 -52 c-3 -3 -12 -4 -19
-1 -8 3 -5 6 6 6 11 1 17 -2 13 -5z m40 -10 c-3 -3 -12 -4 -19 -1 -8 3 -5 6 6
6 11 1 17 -2 13 -5z m513 2 c0 -2 -8 -10 -17 -17 -16 -13 -17 -12 -4 4 13 16
21 21 21 13z m-9987 -13 c-13 -2 -33 -2 -45 0 -13 2 -3 4 22 4 25 0 35 -2 23
-4z m9514 1 c-3 -3 -12 -4 -19 -1 -8 3 -5 6 6 6 11 1 17 -2 13 -5z m-472 -24
c10 -11 16 -20 13 -20 -3 0 -13 9 -23 20 -10 11 -16 20 -13 20 3 0 13 -9 23
-20z m242 -12 c-3 -7 -5 -2 -5 12 0 14 2 19 5 13 2 -7 2 -19 0 -25z m280 26
c-3 -3 -12 -4 -19 -1 -8 3 -5 6 6 6 11 1 17 -2 13 -5z m-10486 -21 c13 -16 12
-17 -3 -4 -10 7 -18 15 -18 17 0 8 8 3 21 -13z m1322 -10 c-7 -2 -19 -2 -25 0
-7 3 -2 5 12 5 14 0 19 -2 13 -5z m8342 -3 c3 -6 -1 -7 -9 -4 -18 7 -21 14 -7
14 6 0 13 -4 16 -10z m-8868 -22 c-3 -8 -6 -5 -6 6 -1 11 2 17 5 13 3 -3 4
-12 1 -19z m-736 -35 c13 -16 12 -17 -3 -4 -17 13 -22 21 -14 21 2 0 10 -8 17
-17z m726 -5 c-3 -8 -6 -5 -6 6 -1 11 2 17 5 13 3 -3 4 -12 1 -19z m-150 -10
c-3 -8 -6 -5 -6 6 -1 11 2 17 5 13 3 -3 4 -12 1 -19z m9428 2 c10 -11 16 -20
13 -20 -3 0 -13 9 -23 20 -10 11 -16 20 -13 20 3 0 13 -9 23 -20z m205 -5 c13
-14 21 -25 18 -25 -2 0 -15 11 -28 25 -13 14 -21 25 -18 25 2 0 15 -11 28 -25z
m-8780 -10 c13 -14 21 -25 18 -25 -2 0 -15 11 -28 25 -13 14 -21 25 -18 25 2
0 15 -11 28 -25z m8340 -1 c0 -2 -9 0 -20 6 -11 6 -20 13 -20 16 0 2 9 0 20
-6 11 -6 20 -13 20 -16z m-9181 -49 c16 -20 16 -20 -6 -1 -13 11 -23 26 -22
35 0 14 1 14 6 1 3 -8 13 -24 22 -35z m512 9 c-5 -16 -10 -21 -10 -12 -1 18
10 51 15 45 2 -1 -1 -16 -5 -33z m1779 -20 c0 -2 -9 0 -20 6 -11 6 -20 13 -20
16 0 2 9 0 20 -6 11 -6 20 -13 20 -16z m7220 -9 c13 -14 21 -25 18 -25 -2 0
-15 11 -28 25 -13 14 -21 25 -18 25 2 0 15 -11 28 -25z m-2240 10 c0 -2 -10
-9 -22 -15 -22 -11 -22 -10 -4 4 21 17 26 19 26 11z m2410 -19 c0 -2 -8 -10
-17 -17 -16 -13 -17 -12 -4 4 13 16 21 21 21 13z m-270 -32 c0 -2 -9 0 -20 6
-11 6 -20 13 -20 16 0 2 9 0 20 -6 11 -6 20 -13 20 -16z m-8903 -6 c-3 -8 -6
-5 -6 6 -1 11 2 17 5 13 3 -3 4 -12 1 -19z m-442 -8 c10 -11 16 -20 13 -20 -3
0 -13 9 -23 20 -10 11 -16 20 -13 20 3 0 13 -9 23 -20z m9085 -6 c0 -2 -9 0
-20 6 -11 6 -20 13 -20 16 0 2 9 0 20 -6 11 -6 20 -13 20 -16z m-8233 -51 c-2
-16 -4 -5 -4 22 0 28 2 40 4 28 2 -13 2 -35 0 -50z m-522 47 c3 -6 -1 -7 -9
-4 -18 7 -21 14 -7 14 6 0 13 -4 16 -10z m9140 -38 c-3 -3 -11 0 -18 7 -9 10
-8 11 6 5 10 -3 15 -9 12 -12z m-7255 -18 c0 -2 -9 0 -20 6 -11 6 -20 13 -20
16 0 2 9 0 20 -6 11 -6 20 -13 20 -16z m5040 21 c0 -2 -10 -9 -22 -15 -22 -11
-22 -10 -4 4 21 17 26 19 26 11z m1350 1 c0 -2 -8 -10 -17 -17 -16 -13 -17
-12 -4 4 13 16 21 21 21 13z m550 1 c0 -2 -12 -14 -27 -28 l-28 -24 24 28 c23
25 31 32 31 24z m-6630 -27 c8 -5 11 -10 5 -10 -5 0 -17 5 -25 10 -8 5 -10 10
-5 10 6 0 17 -5 25 -10z m6542 -44 c7 4 8 2 4 -5 -9 -13 -26 -5 -25 12 0 9 2
8 6 -1 2 -6 10 -9 15 -6z m388 11 c0 -2 -12 -14 -27 -28 l-28 -24 24 28 c23
25 31 32 31 24z m-8369 -34 c13 -16 12 -17 -3 -4 -10 7 -18 15 -18 17 0 8 8 3
21 -13z m5689 7 c-8 -5 -19 -10 -25 -10 -5 0 -3 5 5 10 8 5 20 10 25 10 6 0 3
-5 -5 -10z m2580 -16 c0 -2 -9 0 -20 6 -11 6 -20 13 -20 16 0 2 9 0 20 -6 11
-6 20 -13 20 -16z m-8963 -21 c-3 -10 -5 -4 -5 12 0 17 2 24 5 18 2 -7 2 -21
0 -30z m407 8 c-2 -3 -12 3 -22 13 -16 17 -16 18 5 5 12 -7 20 -15 17 -18z
m7726 -6 c0 -5 -5 -3 -10 5 -5 8 -10 20 -10 25 0 6 5 3 10 -5 5 -8 10 -19 10
-25z m690 22 c0 -2 -12 -14 -27 -28 l-28 -24 24 28 c23 25 31 32 31 24z
m-8513 -104 c-2 -16 -4 -5 -4 22 0 28 2 40 4 28 2 -13 2 -35 0 -50z m5883 47
c-8 -5 -19 -10 -25 -10 -5 0 -3 5 5 10 8 5 20 10 25 10 6 0 3 -5 -5 -10z
m-6032 -54 c-7 -6 -10 -7 -5 -2 4 6 8 21 8 36 2 25 2 25 6 1 3 -13 -1 -29 -9
-35z m292 40 c0 -2 -8 -10 -17 -17 -16 -13 -17 -12 -4 4 13 16 21 21 21 13z
m-399 -33 c13 -16 12 -17 -3 -4 -17 13 -22 21 -14 21 2 0 10 -8 17 -17z m7913
9 c3 -5 -1 -9 -9 -9 -8 0 -12 4 -9 9 3 4 7 8 9 8 2 0 6 -4 9 -8z m-7113 -19
c13 -16 12 -17 -3 -4 -10 7 -18 15 -18 17 0 8 8 3 21 -13z m1389 7 c8 -5 11
-10 5 -10 -5 0 -17 5 -25 10 -8 5 -10 10 -5 10 6 0 17 -5 25 -10z m4180 0 c-8
-5 -19 -10 -25 -10 -5 0 -3 5 5 10 8 5 20 10 25 10 6 0 3 -5 -5 -10z m1887
-18 c15 -20 17 -29 8 -29 -8 0 -13 3 -12 6 1 3 -4 16 -11 29 -17 31 -10 28 15
-6z m-7636 1 c13 -16 12 -17 -3 -4 -17 13 -22 21 -14 21 2 0 10 -8 17 -17z
m2009 -5 c10 -6 7 -7 -10 -2 -14 3 -32 11 -40 16 -10 6 -7 7 10 2 14 -3 32
-11 40 -16z m6050 -13 c0 -5 -5 -3 -10 5 -5 8 -10 20 -10 25 0 6 5 3 10 -5 5
-8 10 -19 10 -25z m-8607 8 c-7 -2 -19 -2 -25 0 -7 3 -2 5 12 5 14 0 19 -2 13
-5z m8477 -38 c0 -5 -5 -3 -10 5 -5 8 -10 20 -10 25 0 6 5 3 10 -5 5 -8 10
-19 10 -25z m-8210 21 c0 -2 -8 -10 -17 -17 -16 -13 -17 -12 -4 4 13 16 21 21
21 13z m1980 -6 c8 -5 11 -10 5 -10 -5 0 -17 5 -25 10 -8 5 -10 10 -5 10 6 0
17 -5 25 -10z m3920 0 c-8 -5 -19 -10 -25 -10 -5 0 -3 5 5 10 8 5 20 10 25 10
6 0 3 -5 -5 -10z m-5725 -20 c10 -11 16 -20 13 -20 -3 0 -13 9 -23 20 -10 11
-16 20 -13 20 3 0 13 -9 23 -20z m7635 -15 c0 -5 -5 -3 -10 5 -5 8 -10 20 -10
25 0 6 5 3 10 -5 5 -8 10 -19 10 -25z m-7449 8 c13 -16 12 -17 -3 -4 -17 13
-22 21 -14 21 2 0 10 -8 17 -17z m1669 7 c8 -5 11 -10 5 -10 -5 0 -17 5 -25
10 -8 5 -10 10 -5 10 6 0 17 -5 25 -10z m3820 0 c-8 -5 -19 -10 -25 -10 -5 0
-3 5 5 10 8 5 20 10 25 10 6 0 3 -5 -5 -10z m-493 -16 c-3 -3 -12 -4 -19 -1
-8 3 -5 6 6 6 11 1 17 -2 13 -5z m2593 -29 c0 -5 -5 -3 -10 5 -5 8 -10 20 -10
25 0 6 5 3 10 -5 5 -8 10 -19 10 -25z m191 8 c13 -16 12 -17 -3 -4 -10 7 -18
15 -18 17 0 8 8 3 21 -13z m-5544 1 c-3 -3 -12 -4 -19 -1 -8 3 -5 6 6 6 11 1
17 -2 13 -5z m-2336 -31 c13 -16 12 -17 -3 -4 -17 13 -22 21 -14 21 2 0 10 -8
17 -17z m7500 0 c13 -16 12 -17 -3 -4 -10 7 -18 15 -18 17 0 8 8 3 21 -13z
m-8660 -10 c13 -16 12 -17 -3 -4 -17 13 -22 21 -14 21 2 0 10 -8 17 -17z
m3646 11 c-3 -3 -12 -4 -19 -1 -8 3 -5 6 6 6 11 1 17 -2 13 -5z m2390 0 c-3
-3 -12 -4 -19 -1 -8 3 -5 6 6 6 11 1 17 -2 13 -5z m3223 3 c0 -2 -10 -12 -22
-23 l-23 -19 19 23 c18 21 26 27 26 19z m-8585 -22 c6 -2 -10 -4 -35 -4 -25 0
-51 3 -59 8 -13 8 69 5 94 -4z m3012 9 c-3 -3 -12 -4 -19 -1 -8 3 -5 6 6 6 11
1 17 -2 13 -5z m2310 0 c-3 -3 -12 -4 -19 -1 -8 3 -5 6 6 6 11 1 17 -2 13 -5z
m-2270 -10 c-3 -3 -12 -4 -19 -1 -8 3 -5 6 6 6 11 1 17 -2 13 -5z m2226 -1
c-7 -2 -19 -2 -25 0 -7 3 -2 5 12 5 14 0 19 -2 13 -5z m-2176 -9 c-3 -3 -12
-4 -19 -1 -8 3 -5 6 6 6 11 1 17 -2 13 -5z m2130 0 c-3 -3 -12 -4 -19 -1 -8 3
-5 6 6 6 11 1 17 -2 13 -5z m-4937 -8 c0 -2 -8 -10 -17 -17 -16 -13 -17 -12
-4 4 13 16 21 21 21 13z m7571 -13 c13 -16 12 -17 -3 -4 -10 7 -18 15 -18 17
0 8 8 3 21 -13z m-7480 -20 c13 -16 12 -17 -3 -4 -17 13 -22 21 -14 21 2 0 10
-8 17 -17z m2912 10 c-7 -2 -19 -2 -25 0 -7 3 -2 5 12 5 14 0 19 -2 13 -5z
m1740 0 c-7 -2 -19 -2 -25 0 -7 3 -2 5 12 5 14 0 19 -2 13 -5z m-1680 -10 c-7
-2 -19 -2 -25 0 -7 3 -2 5 12 5 14 0 19 -2 13 -5z m1620 0 c-7 -2 -21 -2 -30
0 -10 3 -4 5 12 5 17 0 24 -2 18 -5z m3111 -9 c3 -8 2 -12 -4 -9 -6 3 -10 10
-10 16 0 14 7 11 14 -7z m-8673 -11 c13 -16 12 -17 -3 -4 -17 13 -22 21 -14
21 2 0 10 -8 17 -17z m4017 10 c-10 -2 -26 -2 -35 0 -10 3 -2 5 17 5 19 0 27
-2 18 -5z m1475 0 c-7 -2 -21 -2 -30 0 -10 3 -4 5 12 5 17 0 24 -2 18 -5z
m-3128 -13 c3 -6 -1 -7 -9 -4 -18 7 -21 14 -7 14 6 0 13 -4 16 -10z m1728 3
c-7 -2 -21 -2 -30 0 -10 3 -4 5 12 5 17 0 24 -2 18 -5z m1330 0 c-7 -2 -21 -2
-30 0 -10 3 -4 5 12 5 17 0 24 -2 18 -5z m3088 -10 c13 -16 12 -17 -3 -4 -17
13 -22 21 -14 21 2 0 10 -8 17 -17z m-4338 0 c-7 -2 -21 -2 -30 0 -10 3 -4 5
12 5 17 0 24 -2 18 -5z m1160 0 c-7 -2 -21 -2 -30 0 -10 3 -4 5 12 5 17 0 24
-2 18 -5z m-1906 -9 c-3 -3 -12 -4 -19 -1 -8 3 -5 6 6 6 11 1 17 -2 13 -5z
m1800 0 c-3 -3 -12 -4 -19 -1 -8 3 -5 6 6 6 11 1 17 -2 13 -5z m850 0 c-3 -3
-12 -4 -19 -1 -8 3 -5 6 6 6 11 1 17 -2 13 -5z m3393 2 c0 -2 -8 -10 -17 -17
-16 -13 -17 -12 -4 4 13 16 21 21 21 13z m-6003 -12 c-3 -3 -12 -4 -19 -1 -8
3 -5 6 6 6 11 1 17 -2 13 -5z m1091 -1 c-21 -2 -57 -2 -80 0 -24 2 -7 4 37 4
44 0 63 -2 43 -4z m440 0 c-21 -2 -55 -2 -75 0 -21 2 -4 4 37 4 41 0 58 -2 38
-4z m1039 1 c-3 -3 -12 -4 -19 -1 -8 3 -5 6 6 6 11 1 17 -2 13 -5z m-2530 -10
c-3 -3 -12 -4 -19 -1 -8 3 -5 6 6 6 11 1 17 -2 13 -5z m2490 0 c-3 -3 -12 -4
-19 -1 -8 3 -5 6 6 6 11 1 17 -2 13 -5z m-5926 -21 c13 -16 12 -17 -3 -4 -10
7 -18 15 -18 17 0 8 8 3 21 -13z m2419 7 c8 -5 11 -10 5 -10 -5 0 -17 5 -25
10 -8 5 -10 10 -5 10 6 0 17 -5 25 -10z m1057 4 c-3 -3 -12 -4 -19 -1 -8 3 -5
6 6 6 11 1 17 -2 13 -5z m2410 0 c-3 -3 -12 -4 -19 -1 -8 3 -5 6 6 6 11 1 17
-2 13 -5z m2614 -11 c13 -16 12 -17 -3 -4 -10 7 -18 15 -18 17 0 8 8 3 21 -13z
m-4984 1 c-3 -3 -12 -4 -19 -1 -8 3 -5 6 6 6 11 1 17 -2 13 -5z m2330 0 c-3
-3 -12 -4 -19 -1 -8 3 -5 6 6 6 11 1 17 -2 13 -5z m1073 -4 c-8 -5 -19 -10
-25 -10 -5 0 -3 5 5 10 8 5 20 10 25 10 6 0 3 -5 -5 -10z m1551 -17 c13 -16
12 -17 -3 -4 -10 7 -18 15 -18 17 0 8 8 3 21 -13z m-4834 1 c-3 -3 -12 -4 -19
-1 -8 3 -5 6 6 6 11 1 17 -2 13 -5z m2090 0 c-3 -3 -12 -4 -19 -1 -8 3 -5 6 6
6 11 1 17 -2 13 -5z m-2034 -11 c-7 -2 -19 -2 -25 0 -7 3 -2 5 12 5 14 0 19
-2 13 -5z m1980 0 c-7 -2 -19 -2 -25 0 -7 3 -2 5 12 5 14 0 19 -2 13 -5z
m-5612 -20 c13 -16 12 -17 -3 -4 -10 7 -18 15 -18 17 0 8 8 3 21 -13z m590 0
c13 -16 12 -17 -3 -4 -17 13 -22 21 -14 21 2 0 10 -8 17 -17z m3092 10 c-7 -2
-19 -2 -25 0 -7 3 -2 5 12 5 14 0 19 -2 13 -5z m1880 0 c-7 -2 -19 -2 -25 0
-7 3 -2 5 12 5 14 0 19 -2 13 -5z m-1820 -10 c-7 -2 -21 -2 -30 0 -10 3 -4 5
12 5 17 0 24 -2 18 -5z m1770 0 c-7 -2 -21 -2 -30 0 -10 3 -4 5 12 5 17 0 24
-2 18 -5z m-2973 -13 c8 -5 11 -10 5 -10 -5 0 -17 5 -25 10 -8 5 -10 10 -5 10
6 0 17 -5 25 -10z m1263 3 c-7 -2 -21 -2 -30 0 -10 3 -4 5 12 5 17 0 24 -2 18
-5z m1650 0 c-7 -2 -21 -2 -30 0 -10 3 -4 5 12 5 17 0 24 -2 18 -5z m2838 -10
c13 -16 12 -17 -3 -4 -10 7 -18 15 -18 17 0 8 8 3 21 -13z m929 13 c0 -2 -8
-10 -17 -17 -16 -13 -17 -12 -4 4 13 16 21 21 21 13z m-7643 -38 c-3 -7 -5 -2
-5 12 0 14 2 19 5 13 2 -7 2 -19 0 -25z m2280 26 c-3 -3 -12 -4 -19 -1 -8 3
-5 6 6 6 11 1 17 -2 13 -5z m1530 0 c-3 -3 -12 -4 -19 -1 -8 3 -5 6 6 6 11 1
17 -2 13 -5z m-1410 -10 c-3 -3 -12 -4 -19 -1 -8 3 -5 6 6 6 11 1 17 -2 13 -5z
m1290 0 c-3 -3 -12 -4 -19 -1 -8 3 -5 6 6 6 11 1 17 -2 13 -5z m-4416 -21 c13
-16 12 -17 -3 -4 -17 13 -22 21 -14 21 2 0 10 -8 17 -17z m596 -15 c-3 -7 -5
-2 -5 12 0 14 2 19 5 13 2 -7 2 -19 0 -25z m2626 25 c-7 -2 -21 -2 -30 0 -10
3 -4 5 12 5 17 0 24 -2 18 -5z m1110 0 c-7 -2 -21 -2 -30 0 -10 3 -4 5 12 5
17 0 24 -2 18 -5z m2407 -8 c-6 -8 -8 -20 -4 -27 5 -10 4 -10 -6 -1 -11 10
-11 15 0 28 7 8 15 15 17 15 3 0 0 -7 -7 -15z m-6919 -12 c13 -16 12 -17 -3
-4 -17 13 -22 21 -14 21 2 0 10 -8 17 -17z m3512 10 c-13 -2 -33 -2 -45 0 -13
2 -3 4 22 4 25 0 35 -2 23 -4z m900 0 c-13 -2 -33 -2 -45 0 -13 2 -3 4 22 4
25 0 35 -2 23 -4z m4087 3 c0 -2 -8 -10 -17 -17 -16 -13 -17 -12 -4 4 13 16
21 21 21 13z m-4837 -13 c-18 -2 -48 -2 -65 0 -18 2 -4 4 32 4 36 0 50 -2 33
-4z m620 0 c-18 -2 -48 -2 -65 0 -18 2 -4 4 32 4 36 0 50 -2 33 -4z m3638 -10
c13 -16 12 -17 -3 -4 -10 7 -18 15 -18 17 0 8 8 3 21 -13z m-3888 0 c-51 -2
-135 -2 -185 0 -51 1 -10 3 92 3 102 0 143 -2 93 -3z m-3126 -35 c-3 -7 -5 -2
-5 12 0 14 2 19 5 13 2 -7 2 -19 0 -25z m6774 5 c13 -16 12 -17 -3 -4 -17 13
-22 21 -14 21 2 0 10 -8 17 -17z m-6920 -16 c-10 -9 -11 -8 -5 6 3 10 9 15 12
12 3 -3 0 -11 -7 -18z m6103 7 c3 -8 2 -12 -4 -9 -6 3 -10 10 -10 16 0 14 7
11 14 -7z m-74 2 c0 -2 -7 -7 -16 -10 -8 -3 -12 -2 -9 4 6 10 25 14 25 6z
m-5820 -26 c-6 -11 -13 -20 -16 -20 -2 0 0 9 6 20 6 11 13 20 16 20 2 0 0 -9
-6 -20z m460 -66 c0 -2 -13 2 -30 11 -16 9 -30 18 -30 21 0 2 14 -2 30 -11 17
-9 30 -18 30 -21z m6311 19 c13 -16 12 -17 -3 -4 -10 7 -18 15 -18 17 0 8 8 3
21 -13z m109 -7 c0 -2 -8 -10 -17 -17 -16 -13 -17 -12 -4 4 13 16 21 21 21 13z
m-6980 -36 c-6 -11 -13 -20 -16 -20 -2 0 0 9 6 20 6 11 13 20 16 20 2 0 0 -9
-6 -20z m575 -26 c-9 -16 -13 -20 -9 -9 4 11 7 28 8 37 0 10 4 14 9 9 5 -5 2
-21 -8 -37z m3922 30 c-3 -3 -12 -4 -19 -1 -8 3 -5 6 6 6 11 1 17 -2 13 -5z
m1403 -14 c6 -11 8 -20 6 -20 -3 0 -10 9 -16 20 -6 11 -8 20 -6 20 3 0 10 -9
16 -20z m-5705 -20 c-9 -16 -18 -30 -21 -30 -2 0 2 14 11 30 9 17 18 30 21 30
2 0 -2 -13 -11 -30z m5462 14 c-3 -3 -12 -4 -19 -1 -8 3 -5 6 6 6 11 1 17 -2
13 -5z m70 0 c-3 -3 -12 -4 -19 -1 -8 3 -5 6 6 6 11 1 17 -2 13 -5z m-5927
-18 c0 -2 -8 -10 -17 -17 -16 -13 -17 -12 -4 4 13 16 21 21 21 13z m4507 -2
c-3 -3 -12 -4 -19 -1 -8 3 -5 6 6 6 11 1 17 -2 13 -5z m-4622 -22 c-3 -3 -11
0 -18 7 -9 10 -8 11 6 5 10 -3 15 -9 12 -12z m2222 12 c-3 -3 -12 -4 -19 -1
-8 3 -5 6 6 6 11 1 17 -2 13 -5z m2356 -1 c-7 -2 -19 -2 -25 0 -7 3 -2 5 12 5
14 0 19 -2 13 -5z m-3642 -30 c-12 -20 -14 -14 -5 12 4 9 9 14 11 11 3 -2 0
-13 -6 -23z m1336 21 c-3 -3 -12 -4 -19 -1 -8 3 -5 6 6 6 11 1 17 -2 13 -5z
m2260 0 c-3 -3 -12 -4 -19 -1 -8 3 -5 6 6 6 11 1 17 -2 13 -5z m-50 -10 c-3
-3 -12 -4 -19 -1 -8 3 -5 6 6 6 11 1 17 -2 13 -5z m1674 -21 c13 -16 12 -17
-3 -4 -10 7 -18 15 -18 17 0 8 8 3 21 -13z m254 -13 c9 -16 13 -30 11 -30 -3
0 -12 14 -21 30 -9 17 -13 30 -11 30 3 0 12 -13 21 -30z m-3892 3 c-7 -2 -19
-2 -25 0 -7 3 -2 5 12 5 14 0 19 -2 13 -5z m1760 0 c-7 -2 -19 -2 -25 0 -7 3
-2 5 12 5 14 0 19 -2 13 -5z m1467 -8 c-14 -8 -29 -14 -35 -14 -5 0 1 6 15 14
14 8 30 14 35 14 6 0 -1 -6 -15 -14z m-3157 -2 c-7 -2 -19 -2 -25 0 -7 3 -2 5
12 5 14 0 19 -2 13 -5z m1630 0 c-7 -2 -19 -2 -25 0 -7 3 -2 5 12 5 14 0 19
-2 13 -5z m-1560 -10 c-7 -2 -21 -2 -30 0 -10 3 -4 5 12 5 17 0 24 -2 18 -5z
m1490 0 c-7 -2 -21 -2 -30 0 -10 3 -4 5 12 5 17 0 24 -2 18 -5z m-3463 -23
c-6 -11 -13 -20 -16 -20 -2 0 0 9 6 20 6 11 13 20 16 20 2 0 0 -9 -6 -20z
m2053 13 c-7 -2 -21 -2 -30 0 -10 3 -4 5 12 5 17 0 24 -2 18 -5z m1335 0 c-10
-2 -26 -2 -35 0 -10 3 -2 5 17 5 19 0 27 -2 18 -5z m-1245 -10 c-7 -2 -21 -2
-30 0 -10 3 -4 5 12 5 17 0 24 -2 18 -5z m1150 0 c-7 -2 -19 -2 -25 0 -7 3 -2
5 12 5 14 0 19 -2 13 -5z m-3994 -39 c14 -12 -19 -1 -35 12 -18 14 -18 14 6 3
14 -6 27 -13 29 -15z m3299 19 c-26 -2 -71 -2 -100 0 -29 2 -8 3 47 3 55 0 79
-1 53 -3z m310 0 c-26 -2 -71 -2 -100 0 -29 2 -8 3 47 3 55 0 79 -1 53 -3z
m2101 -68 c0 -5 -8 6 -19 25 -11 19 -19 40 -19 45 0 6 8 -6 19 -25 11 -19 19
-39 19 -45z m361 50 c13 -14 21 -25 18 -25 -2 0 -15 11 -28 25 -13 14 -21 25
-18 25 2 0 15 -11 28 -25z m480 5 c6 -11 8 -20 6 -20 -3 0 -10 9 -16 20 -6 11
-8 20 -6 20 3 0 10 -9 16 -20z m-6400 -10 c-8 -5 -22 -9 -30 -9 -10 0 -8 3 5
9 27 12 43 12 25 0z m-57 -17 c-7 -2 -19 -2 -25 0 -7 3 -2 5 12 5 14 0 19 -2
13 -5z m204 -15 c-3 -8 -6 -5 -6 6 -1 11 2 17 5 13 3 -3 4 -12 1 -19z m5194
-25 c13 -16 12 -17 -3 -4 -10 7 -18 15 -18 17 0 8 8 3 21 -13z m849 -3 c6 -11
8 -20 6 -20 -3 0 -10 9 -16 20 -6 11 -8 20 -6 20 3 0 10 -9 16 -20z m-5550
-30 c-6 -11 -13 -20 -16 -20 -2 0 0 9 6 20 6 11 13 20 16 20 2 0 0 -9 -6 -20z
m5720 0 c6 -11 8 -20 6 -20 -3 0 -10 9 -16 20 -6 11 -8 20 -6 20 3 0 10 -9 16
-20z m-6213 -12 c-3 -8 -6 -5 -6 6 -1 11 2 17 5 13 3 -3 4 -12 1 -19z m168
-18 c10 -11 16 -20 13 -20 -3 0 -13 9 -23 20 -10 11 -16 20 -13 20 3 0 13 -9
23 -20z m1295 10 c8 -5 11 -10 5 -10 -5 0 -17 5 -25 10 -8 5 -10 10 -5 10 6 0
17 -5 25 -10z m4970 -15 c0 -2 -10 -9 -22 -15 -22 -11 -22 -10 -4 4 21 17 26
19 26 11z m-443 -87 c-2 -18 -4 -6 -4 27 0 33 2 48 4 33 2 -15 2 -42 0 -60z
m-140 50 c-3 -8 -6 -5 -6 6 -1 11 2 17 5 13 3 -3 4 -12 1 -19z m-5584 5 c-7
-2 -19 -2 -25 0 -7 3 -2 5 12 5 14 0 19 -2 13 -5z m5018 -10 c13 -16 12 -17
-3 -4 -17 13 -22 21 -14 21 2 0 10 -8 17 -17z m576 -55 c-3 -7 -5 -2 -5 12 0
14 2 19 5 13 2 -7 2 -19 0 -25z m-830 -30 c-2 -13 -4 -5 -4 17 -1 22 1 32 4
23 2 -10 2 -28 0 -40z m1093 32 c6 -11 8 -20 6 -20 -3 0 -10 9 -16 20 -6 11
-8 20 -6 20 3 0 10 -9 16 -20z m-5700 7 c0 -2 -12 -14 -27 -28 l-28 -24 24 28
c23 25 31 32 31 24z m4915 -17 c10 -11 16 -20 13 -20 -3 0 -13 9 -23 20 -10
11 -16 20 -13 20 3 0 13 -9 23 -20z m-938 4 c-3 -3 -12 -4 -19 -1 -8 3 -5 6 6
6 11 1 17 -2 13 -5z m-40 -10 c-3 -3 -12 -4 -19 -1 -8 3 -5 6 6 6 11 1 17 -2
13 -5z m-2780 -26 c-3 -8 -6 -5 -6 6 -1 11 2 17 5 13 3 -3 4 -12 1 -19z m2740
16 c-3 -3 -12 -4 -19 -1 -8 3 -5 6 6 6 11 1 17 -2 13 -5z m-4142 -22 c-3 -3
-11 0 -18 7 -9 10 -8 11 6 5 10 -3 15 -9 12 -12z m1830 -2 c10 -11 16 -20 13
-20 -3 0 -13 9 -23 20 -10 11 -16 20 -13 20 3 0 13 -9 23 -20z m2272 14 c-3
-3 -12 -4 -19 -1 -8 3 -5 6 6 6 11 1 17 -2 13 -5z m1403 -58 c0 -12 -5 -7 -19
24 -11 24 -11 24 3 6 9 -11 16 -24 16 -30z m-285 14 c10 -11 16 -20 13 -20 -3
0 -13 9 -23 20 -10 11 -16 20 -13 20 3 0 13 -9 23 -20z m-248 -72 c-2 -18 -4
-6 -4 27 0 33 2 48 4 33 2 -15 2 -42 0 -60z m623 62 c-19 -11 -39 -19 -45 -19
-5 0 6 8 25 19 19 11 40 19 45 19 6 0 -6 -8 -25 -19z m-4629 -17 c-12 -20 -14
-14 -5 12 4 9 9 14 11 11 3 -2 0 -13 -6 -23z m1422 20 c-7 -2 -19 -2 -25 0 -7
3 -2 5 12 5 14 0 19 -2 13 -5z m-756 -9 c-3 -3 -12 -4 -19 -1 -8 3 -5 6 6 6
11 1 17 -2 13 -5z m826 -1 c-7 -2 -21 -2 -30 0 -10 3 -4 5 12 5 17 0 24 -2 18
-5z m1144 -13 c3 -10 2 -11 -4 -4 -4 7 -17 14 -28 17 -16 5 -15 5 4 4 14 -1
26 -9 28 -17z m-1930 4 c-3 -3 -12 -4 -19 -1 -8 3 -5 6 6 6 11 1 17 -2 13 -5z
m670 -31 c-3 -10 -5 -4 -5 12 0 17 2 24 5 18 2 -7 2 -21 0 -30z m226 30 c-7
-2 -19 -2 -25 0 -7 3 -2 5 12 5 14 0 19 -2 13 -5z m960 0 c-7 -2 -21 -2 -30 0
-10 3 -4 5 12 5 17 0 24 -2 18 -5z m974 -15 c-3 -8 -6 -5 -6 6 -1 11 2 17 5
13 3 -3 4 -12 1 -19z m-2786 -5 c13 -17 13 -17 -6 -3 -11 8 -22 16 -24 17 -2
2 0 3 6 3 6 0 17 -8 24 -17z m766 -5 c-3 -8 -6 -5 -6 6 -1 11 2 17 5 13 3 -3
4 -12 1 -19z m1810 16 c-3 -3 -12 -4 -19 -1 -8 3 -5 6 6 6 11 1 17 -2 13 -5z
m63 -9 c19 -22 8 -25 -12 -3 -10 10 -14 18 -9 18 5 0 14 -7 21 -15z m487 -62
c-2 -16 -4 -3 -4 27 0 30 2 43 4 28 2 -16 2 -40 0 -55z m244 60 c13 -16 12
-17 -3 -4 -10 7 -18 15 -18 17 0 8 8 3 21 -13z m-3214 -55 c-2 -13 -4 -3 -4
22 0 25 2 35 4 23 2 -13 2 -33 0 -45z m790 -71 c-2 -23 -3 -1 -3 48 0 50 1 68
3 42 2 -26 2 -67 0 -90z m2604 116 c13 -16 12 -17 -3 -4 -10 7 -18 15 -18 17
0 8 8 3 21 -13z m-4721 -3 c8 -5 11 -10 5 -10 -5 0 -17 5 -25 10 -8 5 -10 10
-5 10 6 0 17 -5 25 -10z m2327 -42 c-2 -13 -4 -5 -4 17 -1 22 1 32 4 23 2 -10
2 -28 0 -40z m600 20 c-3 -8 -6 -5 -6 6 -1 11 2 17 5 13 3 -3 4 -12 1 -19z
m340 0 c-3 -8 -6 -5 -6 6 -1 11 2 17 5 13 3 -3 4 -12 1 -19z m-3010 -10 c-3
-8 -6 -5 -6 6 -1 11 2 17 5 13 3 -3 4 -12 1 -19z m930 0 c-3 -8 -6 -5 -6 6 -1
11 2 17 5 13 3 -3 4 -12 1 -19z m1880 -10 c-3 -7 -5 -2 -5 12 0 14 2 19 5 13
2 -7 2 -19 0 -25z m-1140 -15 c-3 -10 -5 -4 -5 12 0 17 2 24 5 18 2 -7 2 -21
0 -30z m50 -100 c-2 -27 -3 -5 -3 47 0 52 1 74 3 48 2 -27 2 -69 0 -95z m-190
90 c-3 -10 -5 -4 -5 12 0 17 2 24 5 18 2 -7 2 -21 0 -30z m3348 27 c-3 -5 -12
-10 -18 -10 -7 0 -6 4 3 10 19 12 23 12 15 0z m-364 -17 c13 -16 12 -17 -3 -4
-10 7 -18 15 -18 17 0 8 8 3 21 -13z m-3605 -21 c-17 -16 -18 -16 -5 5 7 12
15 20 18 17 3 -2 -3 -12 -13 -22z m-919 -34 c-2 -13 -4 -5 -4 17 -1 22 1 32 4
23 2 -10 2 -28 0 -40z m770 46 c-3 -3 -12 -4 -19 -1 -8 3 -5 6 6 6 11 1 17 -2
13 -5z m40 -10 c-3 -3 -12 -4 -19 -1 -8 3 -5 6 6 6 11 1 17 -2 13 -5z m1820
-76 c-2 -18 -4 -6 -4 27 0 33 2 48 4 33 2 -15 2 -42 0 -60z m400 50 c-3 -7 -5
-2 -5 12 0 14 2 19 5 13 2 -7 2 -19 0 -25z m-2174 15 c-7 -2 -19 -2 -25 0 -7
3 -2 5 12 5 14 0 19 -2 13 -5z m2314 -25 c-3 -7 -5 -2 -5 12 0 14 2 19 5 13 2
-7 2 -19 0 -25z m1462 2 c11 -24 11 -24 -3 -6 -9 11 -16 24 -16 30 0 12 5 7
19 -24z m-2422 -117 c-2 -27 -3 -5 -3 47 0 52 1 74 3 48 2 -27 2 -69 0 -95z
m620 115 c-3 -8 -6 -5 -6 6 -1 11 2 17 5 13 3 -3 4 -12 1 -19z m-3127 2 c8 -5
11 -10 5 -10 -5 0 -17 5 -25 10 -8 5 -10 10 -5 10 6 0 17 -5 25 -10z m1967
-27 c-3 -10 -5 -4 -5 12 0 17 2 24 5 18 2 -7 2 -21 0 -30z m2908 17 c10 -11
16 -20 13 -20 -3 0 -13 9 -23 20 -10 11 -16 20 -13 20 3 0 13 -9 23 -20z
m-3048 -27 c-3 -10 -5 -4 -5 12 0 17 2 24 5 18 2 -7 2 -21 0 -30z m1710 15
c-3 -8 -6 -5 -6 6 -1 11 2 17 5 13 3 -3 4 -12 1 -19z m-550 -10 c-3 -8 -6 -5
-6 6 -1 11 2 17 5 13 3 -3 4 -12 1 -19z m1350 -60 c-2 -18 -4 -6 -4 27 0 33 2
48 4 33 2 -15 2 -42 0 -60z m-4227 52 c8 -5 11 -10 5 -10 -5 0 -17 5 -25 10
-8 5 -10 10 -5 10 6 0 17 -5 25 -10z m2257 -127 c-2 -27 -3 -5 -3 47 0 52 1
74 3 48 2 -27 2 -69 0 -95z m970 100 c-3 -10 -5 -4 -5 12 0 17 2 24 5 18 2 -7
2 -21 0 -30z m-2717 23 c0 -2 -8 -10 -17 -17 -16 -13 -17 -12 -4 4 13 16 21
21 21 13z m2857 -33 c-3 -10 -5 -4 -5 12 0 17 2 24 5 18 2 -7 2 -21 0 -30z
m70 15 c-3 -8 -6 -5 -6 6 -1 11 2 17 5 13 3 -3 4 -12 1 -19z m-2252 -8 c-3 -5
-12 -10 -18 -10 -7 0 -6 4 3 10 19 12 23 12 15 0z m662 -27 c-3 -10 -5 -4 -5
12 0 17 2 24 5 18 2 -7 2 -21 0 -30z m-140 -10 c-3 -10 -5 -4 -5 12 0 17 2 24
5 18 2 -7 2 -21 0 -30z m2650 -55 c-2 -18 -4 -4 -4 32 0 36 2 50 4 33 2 -18 2
-48 0 -65z m-3490 60 c-3 -8 -6 -5 -6 6 -1 11 2 17 5 13 3 -3 4 -12 1 -19z
m2020 -15 c-3 -10 -5 -4 -5 12 0 17 2 24 5 18 2 -7 2 -21 0 -30z m560 15 c-3
-8 -6 -5 -6 6 -1 11 2 17 5 13 3 -3 4 -12 1 -19z m1973 17 c0 -6 -56 -35 -67
-35 -4 1 8 9 27 20 39 22 40 22 40 15z m-2743 -37 c-3 -7 -5 -2 -5 12 0 14 2
19 5 13 2 -7 2 -19 0 -25z m-2426 5 c13 -16 12 -17 -3 -4 -10 7 -18 15 -18 17
0 8 8 3 21 -13z m2776 -15 c-3 -7 -5 -2 -5 12 0 14 2 19 5 13 2 -7 2 -19 0
-25z m210 -5 c-3 -10 -5 -4 -5 12 0 17 2 24 5 18 2 -7 2 -21 0 -30z m-2607 23
c0 -2 -8 -10 -17 -17 -16 -13 -17 -12 -4 4 13 16 21 21 21 13z m2747 -43 c-3
-10 -5 -2 -5 17 0 19 2 27 5 18 2 -10 2 -26 0 -35z m286 40 c-7 -2 -19 -2 -25
0 -7 3 -2 5 12 5 14 0 19 -2 13 -5z m-2673 -38 c0 -5 -5 -3 -10 5 -5 8 -10 20
-10 25 0 6 5 3 10 -5 5 -8 10 -19 10 -25z m2627 29 c-3 -3 -12 -4 -19 -1 -8 3
-5 6 6 6 11 1 17 -2 13 -5z m-2467 -48 c0 -12 -5 -7 -19 24 -11 24 -11 24 3 6
9 -11 16 -24 16 -30z m897 -68 c-2 -24 -4 -7 -4 37 0 44 2 63 4 43 2 -21 2
-57 0 -80z m-2637 77 c14 -8 21 -14 15 -14 -5 0 -21 6 -35 14 -14 8 -20 14
-15 14 6 0 21 -6 35 -14z m1180 11 c0 -2 -8 -10 -17 -17 -16 -13 -17 -12 -4 4
13 16 21 21 21 13z m1107 -28 c-3 -7 -5 -2 -5 12 0 14 2 19 5 13 2 -7 2 -19 0
-25z m1200 -5 c-3 -10 -5 -4 -5 12 0 17 2 24 5 18 2 -7 2 -21 0 -30z m140 -10
c-3 -10 -5 -4 -5 12 0 17 2 24 5 18 2 -7 2 -21 0 -30z m1180 -20 c-3 -10 -5
-2 -5 17 0 19 2 27 5 18 2 -10 2 -26 0 -35z m-3677 27 c-8 -5 -22 -9 -30 -9
-10 0 -8 3 5 9 27 12 43 12 25 0z m1367 -52 c-2 -13 -4 -3 -4 22 0 25 2 35 4
23 2 -13 2 -33 0 -45z m1340 0 c-2 -13 -4 -3 -4 22 0 25 2 35 4 23 2 -13 2
-33 0 -45z m-2820 46 c-3 -3 -12 -4 -19 -1 -8 3 -5 6 6 6 11 1 17 -2 13 -5z
m593 -29 c0 -5 -5 -3 -10 5 -5 8 -10 20 -10 25 0 6 5 3 10 -5 5 -8 10 -19 10
-25z m417 -47 c-2 -13 -4 -3 -4 22 0 25 2 35 4 23 2 -13 2 -33 0 -45z m1950
25 c-3 -10 -5 -4 -5 12 0 17 2 24 5 18 2 -7 2 -21 0 -30z m-480 -5 c-3 -7 -5
-2 -5 12 0 14 2 19 5 13 2 -7 2 -19 0 -25z m2193 22 c-8 -5 -19 -10 -25 -10
-5 0 -3 5 5 10 8 5 20 10 25 10 6 0 3 -5 -5 -10z m-2713 -47 c-3 -10 -5 -2 -5
17 0 19 2 27 5 18 2 -10 2 -26 0 -35z m1463 12 c19 -19 32 -35 29 -35 -3 0
-20 16 -39 35 -19 19 -32 35 -29 35 3 0 20 -16 39 -35z m-2023 -7 c-3 -8 -6
-5 -6 6 -1 11 2 17 5 13 3 -3 4 -12 1 -19z m716 15 c-7 -2 -19 -2 -25 0 -7 3
-2 5 12 5 14 0 19 -2 13 -5z m-296 -35 c-3 -7 -5 -2 -5 12 0 14 2 19 5 13 2
-7 2 -19 0 -25z m846 -17 c-4 -6 -43 30 -43 40 0 5 10 -2 23 -14 13 -12 22
-24 20 -26z m534 27 c-3 -8 -6 -5 -6 6 -1 11 2 17 5 13 3 -3 4 -12 1 -19z
m-387 8 c0 -2 -8 -10 -17 -17 -16 -13 -17 -12 -4 4 13 16 21 21 21 13z m-1165
-46 l20 -25 -22 19 c-13 11 -23 24 -23 29 0 6 1 8 3 6 1 -2 11 -15 22 -29z
m-158 -2 c-3 -8 -6 -5 -6 6 -1 11 2 17 5 13 3 -3 4 -12 1 -19z m520 -10 c-3
-7 -5 -2 -5 12 0 14 2 19 5 13 2 -7 2 -19 0 -25z m1200 10 c-3 -8 -6 -5 -6 6
-1 11 2 17 5 13 3 -3 4 -12 1 -19z m-1397 8 c0 -2 -8 -10 -17 -17 -16 -13 -17
-12 -4 4 13 16 21 21 21 13z m137 -18 c-3 -8 -6 -5 -6 6 -1 11 2 17 5 13 3 -3
4 -12 1 -19z m781 15 c-10 -2 -26 -2 -35 0 -10 3 -2 5 17 5 19 0 27 -2 18 -5z
m-975 -30 c-13 -2 -35 -2 -50 0 -16 2 -5 4 22 4 28 0 40 -2 28 -4z m460 0 c-7
-2 -21 -2 -30 0 -10 3 -4 5 12 5 17 0 24 -2 18 -5z m-2733 -13 c8 -5 11 -10 5
-10 -5 0 -17 5 -25 10 -8 5 -10 10 -5 10 6 0 17 -5 25 -10z m2544 -6 c3 -8 2
-12 -4 -9 -6 3 -10 10 -10 16 0 14 7 11 14 -7z m-1297 0 c-3 -3 -12 -4 -19 -1
-8 3 -5 6 6 6 11 1 17 -2 13 -5z m338 -14 c10 -11 16 -20 13 -20 -3 0 -13 9
-23 20 -10 11 -16 20 -13 20 3 0 13 -9 23 -20z m-298 4 c-3 -3 -12 -4 -19 -1
-8 3 -5 6 6 6 11 1 17 -2 13 -5z m2400 0 c-3 -3 -12 -4 -19 -1 -8 3 -5 6 6 6
11 1 17 -2 13 -5z m-797 -7 c0 -2 -15 -16 -32 -33 l-33 -29 29 33 c28 30 36
37 36 29z m757 -3 c-3 -3 -12 -4 -19 -1 -8 3 -5 6 6 6 11 1 17 -2 13 -5z
m-1207 -7 c0 -2 -12 -14 -27 -28 l-28 -24 24 28 c23 25 31 32 31 24z m-727
-34 c-7 -2 -21 -2 -30 0 -10 3 -4 5 12 5 17 0 24 -2 18 -5z m60 0 c-7 -2 -19
-2 -25 0 -7 3 -2 5 12 5 14 0 19 -2 13 -5z m1470 -10 c-18 -2 -48 -2 -65 0
-18 2 -4 4 32 4 36 0 50 -2 33 -4z m-868 -13 c-3 -5 -12 -10 -18 -10 -7 0 -6
4 3 10 19 12 23 12 15 0z m440 0 c-3 -5 -12 -10 -18 -10 -7 0 -6 4 3 10 19 12
23 12 15 0z m-638 -16 c-3 -3 -12 -4 -19 -1 -8 3 -5 6 6 6 11 1 17 -2 13 -5z
m96 -11 c-7 -2 -21 -2 -30 0 -10 3 -4 5 12 5 17 0 24 -2 18 -5z m1914 -79 c-3
-3 -12 -4 -19 -1 -8 3 -5 6 6 6 11 1 17 -2 13 -5z m-40 -10 c-3 -3 -12 -4 -19
-1 -8 3 -5 6 6 6 11 1 17 -2 13 -5z m-3410 -10 c-3 -3 -12 -4 -19 -1 -8 3 -5
6 6 6 11 1 17 -2 13 -5z m3180 -40 c-3 -3 -12 -4 -19 -1 -8 3 -5 6 6 6 11 1
17 -2 13 -5z m-2940 -10 c-3 -3 -12 -4 -19 -1 -8 3 -5 6 6 6 11 1 17 -2 13 -5z
m2890 0 c-3 -3 -12 -4 -19 -1 -8 3 -5 6 6 6 11 1 17 -2 13 -5z m-2840 -10 c-3
-3 -12 -4 -19 -1 -8 3 -5 6 6 6 11 1 17 -2 13 -5z m2800 0 c-3 -3 -12 -4 -19
-1 -8 3 -5 6 6 6 11 1 17 -2 13 -5z m-2760 -10 c-3 -3 -12 -4 -19 -1 -8 3 -5
6 6 6 11 1 17 -2 13 -5z m2710 0 c-3 -3 -12 -4 -19 -1 -8 3 -5 6 6 6 11 1 17
-2 13 -5z m-2510 -30 c-3 -3 -12 -4 -19 -1 -8 3 -5 6 6 6 11 1 17 -2 13 -5z
m2310 0 c-3 -3 -12 -4 -19 -1 -8 3 -5 6 6 6 11 1 17 -2 13 -5z m-2244 -11 c-7
-2 -19 -2 -25 0 -7 3 -2 5 12 5 14 0 19 -2 13 -5z m2190 0 c-7 -2 -19 -2 -25
0 -7 3 -2 5 12 5 14 0 19 -2 13 -5z m-2130 -10 c-7 -2 -19 -2 -25 0 -7 3 -2 5
12 5 14 0 19 -2 13 -5z m2070 0 c-7 -2 -21 -2 -30 0 -10 3 -4 5 12 5 17 0 24
-2 18 -5z m-2000 -10 c-7 -2 -21 -2 -30 0 -10 3 -4 5 12 5 17 0 24 -2 18 -5z
m1930 0 c-7 -2 -19 -2 -25 0 -7 3 -2 5 12 5 14 0 19 -2 13 -5z m-1870 -10 c-7
-2 -19 -2 -25 0 -7 3 -2 5 12 5 14 0 19 -2 13 -5z m1800 0 c-7 -2 -19 -2 -25
0 -7 3 -2 5 12 5 14 0 19 -2 13 -5z m-1560 -20 c-7 -2 -21 -2 -30 0 -10 3 -4
5 12 5 17 0 24 -2 18 -5z m1330 0 c-7 -2 -21 -2 -30 0 -10 3 -4 5 12 5 17 0
24 -2 18 -5z m-1205 -10 c-10 -2 -28 -2 -40 0 -13 2 -5 4 17 4 22 1 32 -1 23
-4z m1095 0 c-13 -2 -33 -2 -45 0 -13 2 -3 4 22 4 25 0 35 -2 23 -4z m-945
-10 c-15 -2 -42 -2 -60 0 -18 2 -6 4 27 4 33 0 48 -2 33 -4z m810 0 c-15 -2
-42 -2 -60 0 -18 2 -6 4 27 4 33 0 48 -2 33 -4z m-290 -10 c-75 -2 -201 -2
-280 0 -79 1 -17 3 137 3 154 0 218 -2 143 -3z"/>
<path d="M6057 6192 c-34 -37 -11 -92 38 -92 24 0 55 33 55 57 0 19 -37 53
-58 53 -11 0 -26 -8 -35 -18z"/>
<path d="M9867 6192 c-22 -24 -21 -55 1 -75 24 -22 55 -21 75 1 22 25 21 48
-3 72 -25 25 -52 26 -73 2z"/>
<path d="M6808 6139 c-22 -12 -24 -62 -3 -79 23 -19 64 -4 71 27 5 20 2 31
-16 45 -25 21 -29 21 -52 7z"/>
<path d="M9142 6134 c-39 -27 -23 -84 24 -84 46 0 59 60 19 86 -18 12 -24 11
-43 -2z"/>
<path d="M7397 6122 c-22 -24 -21 -45 1 -65 23 -21 46 -22 66 -1 30 30 9 84
-33 84 -10 0 -25 -8 -34 -18z"/>
<path d="M8557 6122 c-22 -24 -21 -45 1 -65 23 -21 46 -22 66 -1 30 30 9 84
-33 84 -10 0 -25 -8 -34 -18z"/>
<path d="M5230 6100 c-24 -24 -25 -38 -4 -68 17 -24 62 -30 82 -10 20 20 14
65 -10 82 -30 21 -44 20 -68 -4z"/>
<path d="M10712 6104 c-24 -17 -30 -62 -10 -82 37 -37 113 12 88 57 -9 17 -39
41 -52 41 -2 0 -14 -7 -26 -16z"/>
<path d="M7911 5961 c-136 -192 -308 -349 -470 -430 -79 -40 -238 -98 -246
-90 -2 3 9 65 25 139 17 73 28 135 26 138 -2 2 -53 -29 -113 -68 -121 -80
-314 -178 -422 -215 l-71 -24 0 25 c0 73 25 226 54 338 19 69 30 126 24 126
-14 0 -45 -17 -133 -75 -167 -110 -374 -208 -590 -278 -100 -32 -294 -87 -309
-87 -3 0 32 53 77 118 46 64 106 151 133 192 53 79 98 176 86 184 -8 5 -68
-30 -244 -142 -109 -70 -278 -156 -395 -203 -190 -75 -483 -134 -638 -127
l-70 3 126 78 c120 73 240 170 227 182 -3 3 -41 -5 -84 -19 -176 -54 -377 -89
-609 -106 -167 -12 -591 -12 -800 0 -82 4 -154 5 -158 0 -9 -8 11 -162 38
-290 20 -97 69 -256 107 -347 l30 -73 4512 0 4513 0 41 113 c72 194 112 365
129 541 l6 69 -46 -6 c-26 -4 -235 -9 -464 -13 -466 -7 -642 4 -848 51 -144
34 -258 56 -262 51 -11 -10 125 -110 214 -157 101 -53 102 -54 70 -62 -42 -10
-240 1 -347 19 -185 32 -406 104 -595 193 -107 51 -201 107 -333 200 -48 33
-129 67 -138 58 -7 -7 64 -101 164 -217 95 -110 225 -280 215 -280 -4 0 -60 9
-123 20 -338 58 -686 210 -908 398 -29 24 -55 42 -58 39 -3 -2 11 -51 31 -108
20 -57 45 -131 54 -164 21 -70 47 -232 38 -241 -9 -9 -149 33 -230 70 -101 46
-194 108 -295 196 -46 40 -86 70 -89 67 -3 -3 11 -65 31 -138 20 -73 34 -135
31 -137 -8 -8 -151 36 -245 75 -231 95 -456 281 -566 469 -14 24 -28 44 -29
44 -2 0 -36 -45 -74 -99z"/>
<path d="M8283 4759 c-10 -10 -13 -70 -13 -228 0 -205 1 -218 24 -266 30 -66
77 -110 145 -137 48 -19 74 -22 181 -22 204 1 413 57 703 187 53 23 72 47 62
78 -8 23 -47 42 -189 89 -66 22 -94 35 -85 41 8 4 55 15 104 24 211 39 593
116 623 126 35 12 53 50 35 78 -15 24 -109 27 -888 36 -557 5 -692 4 -702 -6z"/>
<path d="M6880 4750 c-355 -3 -650 -8 -656 -12 -20 -13 -23 -47 -6 -68 13 -14
61 -28 187 -55 94 -20 220 -47 280 -60 61 -13 149 -32 198 -41 48 -10 87 -21
87 -24 0 -3 -54 -28 -120 -55 -66 -26 -125 -54 -131 -61 -6 -7 -9 -23 -7 -36
4 -27 103 -83 264 -148 398 -161 685 -135 805 74 l29 51 0 196 c0 260 6 250
-163 247 -67 -2 -412 -5 -767 -8z"/>
<path d="M3665 4726 c-15 -22 -13 -29 26 -117 266 -605 771 -1189 1389 -1608
1016 -688 2281 -980 3593 -831 1011 115 1985 533 2697 1157 318 279 601 619
804 965 73 125 184 354 192 396 12 65 43 62 -606 62 -670 0 -601 11 -639 -100
-25 -72 -142 -312 -170 -348 l-17 -24 -182 76 c-100 42 -192 76 -205 76 -18 0
-34 -14 -61 -55 -20 -30 -36 -65 -36 -78 0 -16 24 -44 83 -97 203 -181 210
-189 194 -213 -56 -84 -397 -404 -417 -392 -5 3 -78 53 -162 110 -84 58 -163
105 -176 105 -30 0 -141 -79 -148 -105 -3 -13 22 -90 61 -190 l66 -169 -22
-17 c-72 -54 -516 -257 -530 -242 -4 5 -52 72 -108 149 -55 78 -107 144 -116
147 -20 8 -217 -57 -229 -76 -6 -9 -4 -75 7 -183 9 -93 13 -172 9 -175 -26
-23 -566 -106 -636 -97 -28 3 -29 5 -67 161 -21 87 -43 165 -50 173 -9 11 -50
14 -200 14 -209 0 -213 -1 -224 -68 -11 -63 -46 -246 -51 -264 -7 -23 -39 -23
-240 2 -156 19 -412 67 -426 79 -4 4 -1 82 8 174 9 108 11 173 5 184 -11 21
-208 87 -231 78 -8 -3 -44 -47 -80 -98 -35 -50 -83 -117 -105 -148 l-41 -57
-104 42 c-105 42 -280 127 -396 192 l-61 34 68 163 c67 158 76 191 61 213 -13
20 -136 104 -152 104 -8 0 -87 -50 -175 -110 -88 -61 -165 -109 -171 -108 -37
9 -246 212 -396 384 -18 20 -17 22 132 154 98 88 150 140 150 154 0 27 -71
135 -93 142 -11 4 -89 -25 -201 -75 -101 -45 -187 -81 -193 -81 -13 0 -144
256 -178 350 -45 123 28 110 -646 110 l-589 0 -15 -24z"/>
<path d="M5046 4734 c-23 -22 -21 -35 21 -132 43 -102 60 -125 88 -119 12 2
90 44 173 93 156 91 179 114 155 153 -15 24 -413 29 -437 5z"/>
<path d="M5526 4734 c-9 -8 -16 -22 -16 -30 0 -33 118 -222 217 -347 35 -44
63 -83 63 -86 0 -3 -59 -53 -130 -110 -103 -83 -130 -110 -130 -129 0 -35 184
-222 218 -222 16 0 75 38 163 105 77 58 141 105 144 105 2 0 42 -29 87 -63 46
-35 128 -92 183 -127 55 -35 101 -64 103 -66 2 -1 -36 -70 -84 -153 -76 -133
-86 -155 -76 -175 12 -26 259 -156 296 -156 31 0 34 4 140 150 54 74 102 139
106 143 4 4 65 -12 136 -36 71 -24 171 -54 223 -67 l93 -23 -5 -46 c-3 -25
-12 -106 -18 -179 -12 -127 -12 -133 7 -151 20 -20 141 -44 280 -57 89 -8 83
-15 149 196 l48 155 308 0 307 0 49 -159 c26 -88 55 -168 63 -179 15 -18 21
-19 110 -7 136 17 233 39 249 55 12 12 13 38 3 172 -7 87 -12 168 -12 179 0
19 13 25 103 47 56 14 154 44 217 66 63 21 118 37 122 35 4 -2 55 -64 113
-137 59 -72 117 -136 129 -141 19 -7 48 4 157 60 116 60 134 73 137 96 2 18
-18 63 -66 146 -38 65 -75 128 -81 140 -10 18 -3 25 87 80 53 33 139 92 190
131 51 39 95 71 98 71 3 0 67 -43 141 -95 75 -52 146 -95 158 -95 24 0 205
178 205 201 0 8 -54 66 -121 130 l-122 115 64 80 c74 91 145 196 182 271 26
50 47 75 47 54 0 -15 299 -191 325 -191 12 0 27 6 32 13 20 27 83 178 83 200
0 44 -12 47 -222 47 -186 0 -199 -1 -210 -20 -12 -19 -13 -19 -34 0 -20 19
-33 20 -290 18 l-269 -3 -79 -105 c-97 -129 -313 -345 -421 -422 -236 -167
-430 -240 -840 -318 -121 -22 -250 -50 -286 -60 -102 -31 -202 -85 -265 -145
l-57 -54 -60 55 c-118 110 -216 145 -643 229 -442 88 -710 227 -984 511 -58
60 -139 154 -181 209 l-75 100 -271 3 c-237 2 -273 0 -287 -14z"/>
</g>
</svg>
